<svg id="圖層_1" data-name="圖層 1" xmlns="http://www.w3.org/2000/svg" xmlns:xlink="http://www.w3.org/1999/xlink" viewBox="0 0 308.67 83">
  <defs>
    <style>
      .cls-1, .cls-4 {
        fill: none;
      }

      .cls-2 {
        clip-path: url(#clip-path);
      }

      .cls-3, .cls-6 {
        fill: #df6e0c;
      }

      .cls-4, .cls-6 {
        stroke: #231815;
        stroke-miterlimit: 10;
      }

      .cls-4 {
        stroke-width: 2.17px;
      }

      .cls-5 {
        fill: #eeeeef;
      }

      .cls-6 {
        stroke-width: 2.1px;
      }

      .cls-7 {
        fill: #231815;
      }
    </style>
    <clipPath id="clip-path">
      <rect class="cls-1" x="-381.83" y="-135.5" width="275" height="380"/>
    </clipPath>
  </defs>
  <title>AI</title>
  <g class="cls-2">
    <image width="6000" height="4000" transform="translate(-542.33 -161) scale(0.1)" xlink:href="../../../Downloads/DSC_7755.jpg"/>
  </g>
  <g>
    <g>
      <circle class="cls-3" cx="44.53" cy="46.14" r="34.83"/>
      <circle class="cls-4" cx="40.21" cy="43.8" r="34.83"/>
      <g>
        <path class="cls-5" d="M46.57,58.38a3.29,3.29,0,0,1-2-.66A3.34,3.34,0,0,1,43.34,56l-1.87-6.41a.43.43,0,0,0-.42-.3H30.56a.4.4,0,0,0-.43.3L28.22,56A3.23,3.23,0,0,1,27,57.72a3.27,3.27,0,0,1-2,.66h-.12a1.74,1.74,0,0,1-1.49-.76,1.67,1.67,0,0,1-.34-1,1.44,1.44,0,0,1,.13-.6l9-27.26A3.61,3.61,0,0,1,33.45,27a3.32,3.32,0,0,1,2-.66h.8a3.37,3.37,0,0,1,2,.66,3.51,3.51,0,0,1,1.29,1.72l9,27.26a1.62,1.62,0,0,1,.13.6,1.55,1.55,0,0,1-.39,1,1.63,1.63,0,0,1-1.44.76ZM31.49,45a.19.19,0,0,0,0,.2.24.24,0,0,0,.17.1h8.12a.21.21,0,0,0,.19-.1.41.41,0,0,0,.06-.2l-1.19-4q-.81-2.59-3-10.53a.14.14,0,0,0-.13-.09.08.08,0,0,0-.09.09Q34.47,35.15,32.72,41Z"/>
        <path class="cls-5" d="M56.79,33a2.85,2.85,0,0,1-2,.72,2.78,2.78,0,0,1-2-.72,2.39,2.39,0,0,1-.77-1.82,2.44,2.44,0,0,1,.77-1.86,2.78,2.78,0,0,1,2-.72,2.85,2.85,0,0,1,2,.72,2.39,2.39,0,0,1,.79,1.86A2.34,2.34,0,0,1,56.79,33Zm-.46,24.72a2.2,2.2,0,0,1-3.06,0,2.08,2.08,0,0,1-.62-1.51V39.79a2.06,2.06,0,0,1,.62-1.5,2.17,2.17,0,0,1,3.06,0,2.06,2.06,0,0,1,.62,1.5V56.25A2.08,2.08,0,0,1,56.33,57.76Z"/>
      </g>
    </g>
    <rect class="cls-6" x="95.99" y="25.37" width="183.18" height="35.08" rx="16.83" ry="16.83"/>
    <rect class="cls-4" x="95.99" y="25.37" width="207.29" height="35.08" rx="17.4" ry="17.4"/>
    <g>
      <path class="cls-7" d="M109.61,10.5a8.09,8.09,0,0,0,3.26,2.23,4.18,4.18,0,0,0-.71.82,8.89,8.89,0,0,1-3.69-3.05h-4.53a10,10,0,0,1-3.79,3.24,3.85,3.85,0,0,0-.69-.82,8.48,8.48,0,0,0,3.27-2.42H99.6V9.58h2.87V5h-2.2v-.9h2.2V2.67h1.06V4.06h5.26V2.67h1.09V4.06h2.17V5h-2.17V9.58h2.8v.92Zm-3,4.08h5v.92H100.72v-.92h4.85V13.06h-2.95v-.88h2.95V11h1.08v1.22h3v.88h-3ZM103.53,5v1h5.26V5Zm0,2.78h5.26v-1h-5.26Zm0,1.84h5.26v-1h-5.26Z"/>
      <path class="cls-7" d="M115.9,14.09v1.15H115V9.92a10,10,0,0,1-.8,1.23,5.11,5.11,0,0,0-.46-1.15,13.81,13.81,0,0,0,2-5.55h-1.66v-1h4.32v1h-1.64a26.23,26.23,0,0,1-.9,3.39h2.33v6.25Zm1.56-5.23H115.9v4.22h1.56Zm5.94,5.72a9.25,9.25,0,0,0,.95.05c.36,0,2.52,0,3,0a2.83,2.83,0,0,0-.35,1H124.3c-2,0-3.3-.4-4.16-2a4.38,4.38,0,0,1-1.53,2.36l-.77-.69c1.25-.9,1.67-2.58,1.84-4.42l.94.15c0,.43-.09.83-.16,1.24a3.08,3.08,0,0,0,1.9,2.19V10.12h-3.64V9.18h7.5l.17-.06.71.24a15.47,15.47,0,0,1-.84,2.08l-.86-.32a8,8,0,0,0,.4-1h-2.4v1.67h3.3v.92h-3.3Zm-3-8.4a9.17,9.17,0,0,1-1.48,2,2.71,2.71,0,0,0-.54-.75A7.62,7.62,0,0,0,120.1,5h-1.41V4.13h1.7V2.67h.91V4.13h1.38V5H121.3v.16c.32.31,1.22,1.3,1.42,1.56l-.59.7c-.16-.29-.51-.79-.83-1.24V8.7h-.91Zm4.07.24A6.43,6.43,0,0,1,123,8.35a3.26,3.26,0,0,0-.53-.72A6.39,6.39,0,0,0,124.29,5H123v-.9h1.46V2.67h.93V4.12h1.8V5h-1.55c.5.61,1.51,1.88,1.75,2.26l-.67.75c-.24-.48-.85-1.48-1.33-2.2V8.7h-.93Z"/>
    </g>
    <g>
      <path class="cls-7" d="M199.61,8.15V9H186.69V8.15h4.5V5.32H187.5v-.9h2.73A5.48,5.48,0,0,0,189.32,3l.91-.36a5.16,5.16,0,0,1,1.06,1.51l-.63.27h4.19a10.47,10.47,0,0,0,1-1.78l1.06.35A12,12,0,0,1,196,4.42h2.85v.9h-3.82V8.15ZM189,5.51a6.85,6.85,0,0,1,1.17,2.1l-1,.38a6.86,6.86,0,0,0-1.1-2.15Zm-.38,4.42h9v5.9h-1.08v-.44h-6.89v.5h-1.06Zm1.06.87v1.42h6.89V10.8Zm6.89,3.72V13.06h-6.89v1.46ZM192.2,8.15H194V5.32H192.2Zm3.73-.44a14.75,14.75,0,0,0,1.2-2.26l1,.32A19.64,19.64,0,0,1,196.77,8Z"/>
      <path class="cls-7" d="M204.58,9.58a18,18,0,0,1-1.2,3.74c.29.16.62.44,1.17.75a7.66,7.66,0,0,0,4,.73c1.87,0,4.2-.15,5.82-.3a3.92,3.92,0,0,0-.32,1.11c-1.08.07-3.82.16-5.55.16a7.9,7.9,0,0,1-4.23-.8c-.58-.34-1.13-.84-1.45-.84s-.81.92-1.22,1.83l-.75-1a6.21,6.21,0,0,1,1.45-1.61,12.62,12.62,0,0,0,1-3h-1.89c.39-.85.86-2.08,1.25-3.23h-1.62v-1h3c-.35,1-.81,2.26-1.19,3.26h1l.17,0Zm-2-4.19c-.16-.62-.49-1.62-.74-2.38l1-.27c.26.75.58,1.71.76,2.33Zm4.09,8.35h-1V6.28h4.14c-.87-.42-1.9-.89-2.77-1.21l.69-.59c.62.2,1.33.49,2,.78a12,12,0,0,0,2-1.14h-6V3.26h7.08L213,3.2l.66.51a12.27,12.27,0,0,1-2.93,2c.42.21.81.4,1.11.58h1.83v6.37c0,.54-.12.79-.49.95a5.88,5.88,0,0,1-2,.17,3.37,3.37,0,0,0-.29-.9c.68,0,1.29,0,1.46,0s.25-.06.25-.25V11.32h-2.52v2.36h-1V11.32H206.7Zm0-6.64V8.38h2.42V7.1Zm2.42,3.39V9.18H206.7v1.31Zm3.49-3.39h-2.52V8.38h2.52Zm0,3.39V9.18h-2.52v1.31Z"/>
    </g>
    <g>
      <path class="cls-7" d="M275.53,9.58a12.58,12.58,0,0,1-1.68,4.57,6.12,6.12,0,0,0-.52-1.06,11.47,11.47,0,0,0,1.49-3.74Zm1.13-1.07V15.9h-1V8.51h-2.11v-1h2.11V2.68h1V7.51h1.79v1Zm-2.23-1.64a27.57,27.57,0,0,0-.78-3.06l.8-.19a26.36,26.36,0,0,1,.81,3.05Zm3,2.49c.26.38,1.25,2.18,1.45,2.61l-.74.8c-.24-.71-1-2.43-1.3-3Zm1.39-5.42c-.37,1-.84,2.26-1.21,3l-.7-.25a23.76,23.76,0,0,0,1-3.09Zm7.11,10.83c0,.52-.1.78-.5.94a5.44,5.44,0,0,1-1.87.16,3.53,3.53,0,0,0-.3-.9c.65,0,1.25,0,1.42,0s.23-.06.23-.22V13.54h-4.49a5.3,5.3,0,0,1-1.05,2.54,3,3,0,0,0-.75-.71,5.92,5.92,0,0,0,1-3.7V9h6.35Zm.84-7.45v.83h-8V7.32h3.42v-1h-2.9V5.55h2.9V4.67h-3.26V3.84h3.26V2.67h1.06V3.84h3.42v.83H283.2v.88h3.16v.78H283.2v1Zm-1.86,5.45V11.7h-4.35c0,.33,0,.69,0,1.07Zm-4.35-2.91v1.07h4.35V9.86Z"/>
      <path class="cls-7" d="M294.65,10.54l-2.5.17v.95c0,.49-.09.69-.48.82a6.57,6.57,0,0,1-1.86.13,3.39,3.39,0,0,0-.3-.78,13.44,13.44,0,0,0,1.42,0c.19,0,.23-.05.23-.2v-.85c-1.07.05-2.06.13-2.87.17l-.09-.81,3-.15V9.22a9.6,9.6,0,0,0,1.26-.48H288.7V8h4.92l.19,0,.57.47a9.33,9.33,0,0,1-2.23,1.13v.37l2.52-.15Zm.18-6h-6.61V3.75h3a8.18,8.18,0,0,0-.44-.89l.93-.25a5.55,5.55,0,0,1,.62,1.14h2.47Zm-6.48,10.88A7.12,7.12,0,0,0,289.94,13l1,.24a7.83,7.83,0,0,1-1.6,2.62Zm.75-8V5.13h5.08V7.42Zm.92-.65h3.21v-1H290Zm3.34,6.46a13,13,0,0,1,.35,2.4l-1.06.14a15.62,15.62,0,0,0-.27-2.45Zm6.51-8.39c0,4.39,0,6.8.6,6.8.2,0,.26-.84.27-1.91a5.36,5.36,0,0,0,.67.61c-.1,1.69-.29,2.26-1,2.26-1.44,0-1.49-2.31-1.51-6.83h-1.4v.1a12.12,12.12,0,0,1-.25,2.6,9.06,9.06,0,0,1,1.43,1.34l-.58.84a8.74,8.74,0,0,0-1.14-1.18,7.17,7.17,0,0,1-2.57,3.27,3.18,3.18,0,0,0-.71-.66,6.43,6.43,0,0,0,2.47-3.3c-.48-.37-1-.72-1.45-1l.52-.72c.38.24.77.5,1.16.79a10.81,10.81,0,0,0,.14-1.94v-.1H295V4.84h1.52V2.65h1V4.84Zm-3.52,8.28a11.5,11.5,0,0,1,.85,2.41l-1,.23a12.63,12.63,0,0,0-.8-2.45Zm3-.17a13.64,13.64,0,0,1,1.58,2.53l-1,.34a15.27,15.27,0,0,0-1.52-2.61Z"/>
    </g>
  </g>
</svg>
