<svg id="圖層_1" data-name="圖層 1" xmlns="http://www.w3.org/2000/svg" xmlns:xlink="http://www.w3.org/1999/xlink" viewBox="0 0 1366 768">
  <defs>
    <style>
      .cls-1, .cls-10, .cls-4, .cls-7 {
        fill: none;
      }

      .cls-2 {
        clip-path: url(#clip-path);
      }

      .cls-3 {
        fill: #e6e6e6;
      }

      .cls-4 {
        stroke: #999;
        stroke-width: 2px;
      }

      .cls-5 {
        fill: #999;
      }

      .cls-6 {
        fill: #f7563a;
      }

      .cls-7 {
        stroke: #333;
        stroke-miterlimit: 10;
        stroke-width: 3px;
      }

      .cls-8 {
        fill: #231815;
      }

      .cls-9 {
        fill: #e84a2a;
      }

      .cls-10 {
        stroke: #231815;
        stroke-width: 2.43px;
      }
    </style>
    <clipPath id="clip-path">
      <rect class="cls-1" width="1366" height="768"/>
    </clipPath>
  </defs>
  <title>BG</title>
  <g class="cls-2">
    <rect class="cls-3" width="1366" height="768"/>
    <g>
      <path class="cls-4" d="M186.45-65.47c-29.6,48.28-82.89,88.36-134.35,113C44.81,37,26.14,17,14.76,7.86c50.09-19.13,97.46-51,121.6-88.81Zm24.14,359.34c0,23.22-4.55,34.61-21,41.44-15.48,7.29-38.26,7.74-68.31,7.74-2.28-13.2-9.11-31-15-42.81,18.21.46,39.16.46,45.08.46s8.2-1.82,8.2-7.29V267c-41.44,15.94-84.71,32.33-118.86,45.08L19.77,268.82c34.61-10,87.89-27.33,139.81-44.18V164.52H79.88c20,11.39,43.72,28.24,56.48,40.54L102.2,234.21C90.36,221,64.85,200.5,45.27,188.66l30.06-24.14H38v-46H210.59Zm36-303.77c-20.5,21-45.54,41-70.59,58.75l98.83-5.92C266.15,35.18,258,28.35,249.76,22l40.07-20.5c33.71,25.05,74.7,61.94,96.1,84.71l-41.44,24.14c-6.84-8.65-16.85-18.67-27.78-29.6-179.9,13.2-203.13,15.48-219.07,21.4C94.91,92.57,88.08,68,82.16,54.77c10.47-1.83,20.49-7.75,34.16-16.85C130.89,28.81,174.61-4.44,204.67-40Zm70.14-68.77c24.59,36,75.14,68.31,128,85.16-10.47,10-26.41,30.51-33.25,44.18C362.25,29.26,315.34-4,285.28-39.51H209.22V-78.67Zm97.91,370.72c0,24.13-5,36-21.4,43.26-16.4,6.83-40.08,7.29-72,7.29-2.28-13.21-8.65-31.43-15-43.72,19.58.45,41.9.45,48.28,0,6.37,0,8.65-1.83,8.65-7.29V263.81c-43.27,17.3-87.9,35.07-123.42,48.73l-21.41-42.81c36-10.93,91.09-29.6,144.83-47.82V164.52H233.36v-46H414.62ZM294.39,238.76c-11.84-14.12-36-36-54.2-48.73l33.25-23.68c20.95,13.2,44.18,32.33,56,46.45Z"/>
      <path class="cls-4" d="M651.44,280.2c-2.73,17.77-5.92,28.7-10,35.07-8.19,13.67-17.76,18.67-30.51,21-12.3,1.82-30.51,1.82-50.1.46-.45-12.3-4.55-30.52-10.47-42.36,17.76,1.82,33.7,2.28,41.44,1.82,6.38.46,10-.91,13.66-6.83a21.76,21.76,0,0,0,3.65-9.11H479.29c4.55-28.69,9.56-66.49,13.66-105.66h-21.4v-41h26c2.27-25,4.55-49.19,6.37-72.87-3.18,5.46-5.92,10.47-9.11,15-8.19-9.11-26.41-24.14-36.89-31,23.69-31,44.64-80.61,56.93-128l42.81,13.66c-2.73,9.57-5.92,19.13-9.1,29.15H673.76V7H529.84c-4.1,9.56-8.19,18.67-12.75,27.78H663.28s0,16.39-.45,21.86c-.46,28.69-1.37,54.19-1.82,77h15v41H659.18c-.91,26-1.82,46.91-3.18,64.68h15.48v41ZM533,174.54c-2.28,22.78-4.55,44.64-6.83,64.68h51.92c-8.66-12.3-23.23-29.61-34.16-42.36l24.59-22.32Zm9.56-100.19c-1.36,19.58-3.18,39.17-5.46,59.21h42.81c-8.65-10.93-20.49-24.6-29.6-34.62l25.5-21.86c11.39,11.84,27.33,28.69,35.52,39.17L593.6,133.56h26.87c.46-18.22,1.37-37.35,1.82-59.21ZM615,239.22c1.82-16.86,2.73-37.8,4.1-64.68H569.46a565.4,565.4,0,0,1,37.35,43.27L585,239.22ZM697.9,133.1h39.16v57.38c0,51.92-5.92,111.13-54.65,153-6.37-10-21.4-26.42-31-32.79,41.45-34.62,46.46-81.52,46.46-121.15Zm159.4-2.28c-2.74-6.83-6.38-14.57-10.93-23.68-120.24,7.29-139.37,9.11-153,14.12-2.28-9.11-10-32.79-15-45.54,9.57-2.74,16.4-11.39,26.87-27.33,5-6.83,13.67-20.95,22.77-40.08H683.32V-38.14h66.95Q759.84-60,768-83.23l48.28,15.94c-4.1,9.57-8.2,19.58-12.75,29.15h84.71V8.31H780.78c-10,20-21.4,38.71-32.33,56l73.78-2.73C816.76,52,811.3,42,806.29,33.82l36-18.22c17.76,28.69,41.9,68.77,53.28,93.82ZM757.1,133.1h38.26V324.84H757.1Zm117,168.51a57.2,57.2,0,0,0,17.3-2.73c.91,10.47,1.83,25.5,3.19,34.61-5.46,2.28-13.66,2.73-20.49,2.73H858.21c-35.07,0-41.9-15-41.9-54.19V131.28h40.08V283.39c0,13.66.45,18.22,5,18.22Z"/>
      <path class="cls-4" d="M1212.07,282c0,26-4.55,38.25-20,46-15,7.29-38.25,8.2-73.32,8.2-.91-12.75-6.83-32.79-12.3-45.54,19.59.91,41.9.91,48.73.45,6.38-.45,8.66-2.27,8.66-9.1V199.59c-20,20-40.08,40.54-58.75,58.3l-17.77-35.07v.91H1034c-9.11,46.91-30.06,90.63-74.69,120.23-7.74-11.84-23.68-30.51-35.52-39.62,33.7-18.67,49.64-48.73,57.38-80.61H923.79V175.91h63.3c.46-7.29.46-14.57.46-20.95V137.65H932.44V90.75h55.11v-36H926.06V7.4h31.88C953.84-12.18,942.46-41.78,933.8-65l43.27-13.66c10,22.31,21.41,51,26.42,70.13L959.31,7.4h49.19C1020.34-19,1033.09-55,1039.92-81.86l51.46,14.57c-10.93,25.51-23.22,51.92-34.15,74.69h32.33V54.77h-49.64v36h44.18v46.9h-44.18V155c0,6.83,0,13.66-.46,20.95h47.82V212.8c19.59-16.39,48.74-43.27,76.52-69.68V-14.46h-66.5V-63.65h114.77ZM1128.73,22c10.93,27.78,23.68,64.67,28.69,86.53l-38.71,12.29c-4.55-22.31-15.94-60.57-26.42-89.72Zm211.32,260.5c0,26.42-5,39.17-21.41,46.91-15.48,8.2-40.08,8.2-76.05,8.2-1.37-13.21-6.84-34.16-12.76-46.46,21,.92,44.64.46,51.47.46,7.28-.46,9.56-2.73,9.56-9.56V191.85c-18.22,17.31-36.43,34.16-52.37,48.73l-21.86-41.44c18.67-14.58,46-39.17,74.23-64.22V-14.46h-66.95V-63.65h116.14ZM1259,21.06c9.56,28.7,20.5,66.5,24.59,88.36L1244,119.89c-3.64-23.22-13.66-61.48-22.31-90.63Z"/>
    </g>
    <g>
      <path class="cls-4" d="M186.45,481C156.85,529.31,103.56,569.39,52.1,594c-7.29-10.47-26-30.51-37.34-39.62,50.09-19.13,97.46-51,121.6-88.81Zm24.14,359.33c0,23.23-4.55,34.61-21,41.44-15.48,7.29-38.26,7.74-68.31,7.74-2.28-13.2-9.11-31-15-42.8,18.21.45,39.16.45,45.08.45s8.2-1.82,8.2-7.29V813.5c-41.44,15.94-84.71,32.33-118.86,45.09L19.77,815.32c34.61-10,87.89-27.33,139.81-44.18V711H79.88c20,11.38,43.72,28.23,56.48,40.53L102.2,780.71C90.36,767.5,64.85,747,45.27,735.16L75.33,711H38V665H210.59Zm36-303.77c-20.5,20.95-45.54,41-70.59,58.75l98.83-5.92c-8.66-7.74-16.85-14.58-25.05-20.95L289.83,548c33.71,25,74.7,61.94,96.1,84.71l-41.44,24.14c-6.84-8.65-16.85-18.67-27.78-29.6-179.9,13.21-203.13,15.48-219.07,21.4-2.73-9.56-9.56-34.15-15.48-47.36,10.47-1.82,20.49-7.74,34.16-16.85,14.57-9.11,58.29-42.36,88.35-77.88Zm70.14-68.77c24.59,36,75.14,68.31,128,85.16-10.47,10-26.41,30.52-33.25,44.18-49.18-21.41-96.09-54.65-126.15-90.18H209.22V467.83Zm97.91,370.72c0,24.14-5,36-21.4,43.26-16.4,6.83-40.08,7.29-72,7.29-2.28-13.21-8.65-31.42-15-43.72,19.58.45,41.9.45,48.28,0,6.37,0,8.65-1.82,8.65-7.29V810.31c-43.27,17.31-87.9,35.07-123.42,48.73l-21.41-42.81c36-10.93,91.09-29.6,144.83-47.82V711H233.36V665H414.62ZM294.39,785.26c-11.84-14.12-36-36-54.2-48.73l33.25-23.68c20.95,13.21,44.18,32.33,56,46.45Z"/>
      <path class="cls-4" d="M651.44,826.71c-2.73,17.76-5.92,28.69-10,35.06-8.19,13.67-17.76,18.68-30.51,21-12.3,1.82-30.51,1.82-50.1.46-.45-12.3-4.55-30.51-10.47-42.36,17.76,1.83,33.7,2.28,41.44,1.83,6.38.45,10-.91,13.66-6.84a21.77,21.77,0,0,0,3.65-9.1H479.29c4.55-28.7,9.56-66.5,13.66-105.66h-21.4v-41h26c2.27-25,4.55-49.19,6.37-72.87-3.18,5.46-5.92,10.47-9.11,15-8.19-9.11-26.41-24.14-36.89-31,23.69-31,44.64-80.61,56.93-128l42.81,13.67c-2.73,9.56-5.92,19.12-9.1,29.14H673.76v47.37H529.84c-4.1,9.56-8.19,18.67-12.75,27.78H663.28s0,16.4-.45,21.86c-.46,28.69-1.37,54.2-1.82,77h15v41H659.18c-.91,26-1.82,46.91-3.18,64.67h15.48v41ZM533,721.05c-2.28,22.77-4.55,44.63-6.83,64.67h51.92c-8.66-12.3-23.23-29.61-34.16-42.36l24.59-22.31Zm9.56-100.2c-1.36,19.59-3.18,39.17-5.46,59.21h42.81c-8.65-10.93-20.49-24.6-29.6-34.61l25.5-21.87c11.39,11.85,27.33,28.7,35.52,39.17L593.6,680.06h26.87c.46-18.22,1.37-37.35,1.82-59.21ZM615,785.72c1.82-16.85,2.73-37.8,4.1-64.67H569.46a565.39,565.39,0,0,1,37.35,43.26L585,785.72ZM697.9,679.6h39.16V737c0,51.92-5.92,111.12-54.65,153-6.37-10-21.4-26.41-31-32.79,41.45-34.61,46.46-81.52,46.46-121.14Zm159.4-2.27c-2.74-6.84-6.38-14.58-10.93-23.69-120.24,7.29-139.37,9.11-153,14.12-2.28-9.11-10-32.79-15-45.54,9.57-2.73,16.4-11.39,26.87-27.33,5-6.83,13.67-20.95,22.77-40.08H683.32V508.36h66.95q9.57-21.86,17.76-45.09l48.28,15.94c-4.1,9.57-8.2,19.59-12.75,29.15h84.71v46.45H780.78c-10,20-21.4,38.72-32.33,56l73.78-2.73c-5.47-9.56-10.93-19.58-15.94-27.78l36-18.22c17.76,28.69,41.9,68.77,53.28,93.82ZM757.1,679.6h38.26V871.34H757.1Zm117,168.51a57.2,57.2,0,0,0,17.3-2.73c.91,10.47,1.83,25.5,3.19,34.61-5.46,2.28-13.66,2.73-20.49,2.73H858.21c-35.07,0-41.9-15-41.9-54.19V677.78h40.08V829.89c0,13.67.45,18.22,5,18.22Z"/>
      <path class="cls-4" d="M1212.07,828.53c0,26-4.55,38.25-20,46-15,7.28-38.25,8.19-73.32,8.19-.91-12.75-6.83-32.79-12.3-45.54,19.59.91,41.9.91,48.73.46,6.38-.46,8.66-2.28,8.66-9.11V746.1c-20,20-40.08,40.53-58.75,58.29l-17.77-35.07v.91H1034c-9.11,46.91-30.06,90.63-74.69,120.24-7.74-11.84-23.68-30.52-35.52-39.63,33.7-18.67,49.64-48.73,57.38-80.61H923.79V722.41h63.3c.46-7.28.46-14.57.46-20.95v-17.3H932.44V637.25h55.11v-36H926.06V553.9h31.88c-4.1-19.58-15.48-49.18-24.14-72.41l43.27-13.66c10,22.31,21.41,51,26.42,70.13L959.31,553.9h49.19c11.84-26.41,24.59-62.39,31.42-89.26l51.46,14.57c-10.93,25.51-23.22,51.92-34.15,74.69h32.33v47.37h-49.64v36h44.18v46.91h-44.18v17.3c0,6.83,0,13.67-.46,20.95h47.82V759.3c19.59-16.39,48.74-43.26,76.52-69.68V532h-66.5V482.86h114.77Zm-83.34-260c10.93,27.78,23.68,64.67,28.69,86.53l-38.71,12.3c-4.55-22.32-15.94-60.58-26.42-89.72ZM1340.05,829c0,26.42-5,39.17-21.41,46.91-15.48,8.2-40.08,8.2-76.05,8.2-1.37-13.21-6.84-34.16-12.76-46.45,21,.91,44.64.45,51.47.45,7.28-.45,9.56-2.73,9.56-9.56V738.35c-18.22,17.31-36.43,34.16-52.37,48.73l-21.86-41.44c18.67-14.57,46-39.17,74.23-64.22V532h-66.95V482.86h116.14ZM1259,567.57c9.56,28.69,20.5,66.49,24.59,88.35L1244,666.39c-3.64-23.22-13.66-61.48-22.31-90.63Z"/>
    </g>
    <rect class="cls-5" y="684" width="1366" height="84"/>
    <g>
      <path class="cls-6" d="M106.72,250.6h18.43c11.58,0,21.11,4.1,21.11,17.09,0,12.5-9.67,18-20.76,18h-6.14v17.44H106.72Zm18.15,25.14c6.14,0,9.11-2.9,9.11-8.05s-3.39-7.13-9.46-7.13h-5.16v15.18Z"/>
      <path class="cls-6" d="M152.83,276.59c0-17.23,9.74-27,24.08-27s24.07,9.81,24.07,27-9.74,27.53-24.07,27.53S152.83,293.81,152.83,276.59Zm35.3,0c0-10.17-4.3-16.17-11.22-16.17s-11.16,6-11.16,16.17,4.24,16.66,11.16,16.66S188.13,286.82,188.13,276.59Z"/>
      <path class="cls-6" d="M239.11,303.13l-9.67-18.5h-6.07v18.5H210.73V250.6H230c11.23,0,20.55,3.82,20.55,16.53,0,7.69-3.6,12.63-9,15.18l11.72,20.82Zm-15.74-28.45H229c6,0,9.18-2.61,9.18-7.55s-3.17-6.57-9.18-6.57h-5.64Z"/>
      <path class="cls-6" d="M269.33,261.05H255.14V250.6h41.09v10.45H282v42.08H269.33Z"/>
      <path class="cls-6" d="M304.35,250.6h33.54v10.45H317v11.51h17.94v10.52H317v20.05H304.35Z"/>
      <path class="cls-6" d="M343.75,276.59c0-17.23,9.75-27,24.08-27s24.07,9.81,24.07,27-9.74,27.53-24.07,27.53S343.75,293.81,343.75,276.59Zm35.31,0c0-10.17-4.31-16.17-11.23-16.17s-11.16,6-11.16,16.17,4.24,16.66,11.16,16.66S379.06,286.82,379.06,276.59Z"/>
      <path class="cls-6" d="M401.65,250.6h12.64v41.94h20.4v10.59h-33Z"/>
      <path class="cls-6" d="M443.8,250.6h12.64v52.53H443.8Z"/>
      <path class="cls-6" d="M466.11,276.59c0-17.23,9.75-27,24.08-27s24.08,9.81,24.08,27-9.75,27.53-24.08,27.53S466.11,293.81,466.11,276.59Zm35.31,0c0-10.17-4.31-16.17-11.23-16.17s-11.15,6-11.15,16.17,4.23,16.66,11.15,16.66S501.42,286.82,501.42,276.59Z"/>
    </g>
    <g>
      <path class="cls-7" d="M103.72,247.6h18.43c11.58,0,21.11,4.1,21.11,17.09,0,12.5-9.67,18-20.76,18h-6.14v17.44H103.72Zm18.15,25.14c6.14,0,9.11-2.9,9.11-8.05s-3.39-7.13-9.46-7.13h-5.16v15.18Z"/>
      <path class="cls-7" d="M149.83,273.59c0-17.23,9.74-27,24.08-27s24.07,9.81,24.07,27-9.74,27.53-24.07,27.53S149.83,290.81,149.83,273.59Zm35.3,0c0-10.17-4.3-16.17-11.22-16.17s-11.16,6-11.16,16.17,4.24,16.66,11.16,16.66S185.13,283.82,185.13,273.59Z"/>
      <path class="cls-7" d="M236.11,300.13l-9.67-18.5h-6.07v18.5H207.73V247.6H227c11.23,0,20.55,3.82,20.55,16.53,0,7.69-3.6,12.63-9,15.18l11.72,20.82Zm-15.74-28.45H226c6,0,9.18-2.61,9.18-7.55s-3.17-6.57-9.18-6.57h-5.64Z"/>
      <path class="cls-7" d="M266.33,258.05H252.14V247.6h41.09v10.45H279v42.08H266.33Z"/>
      <path class="cls-7" d="M301.35,247.6h33.54v10.45H314v11.51h17.94v10.52H314v20.05H301.35Z"/>
      <path class="cls-7" d="M340.75,273.59c0-17.23,9.75-27,24.08-27s24.07,9.81,24.07,27-9.74,27.53-24.07,27.53S340.75,290.81,340.75,273.59Zm35.31,0c0-10.17-4.31-16.17-11.23-16.17s-11.16,6-11.16,16.17,4.24,16.66,11.16,16.66S376.06,283.82,376.06,273.59Z"/>
      <path class="cls-7" d="M398.65,247.6h12.64v41.94h20.4v10.59h-33Z"/>
      <path class="cls-7" d="M440.8,247.6h12.64v52.53H440.8Z"/>
      <path class="cls-7" d="M463.11,273.59c0-17.23,9.75-27,24.08-27s24.08,9.81,24.08,27-9.75,27.53-24.08,27.53S463.11,290.81,463.11,273.59Zm35.31,0c0-10.17-4.31-16.17-11.23-16.17s-11.15,6-11.15,16.17,4.23,16.66,11.15,16.66S498.42,283.82,498.42,273.59Z"/>
    </g>
    <g>
      <path class="cls-8" d="M102.9,317.79h5.42c3.7,0,6.26,1.24,6.26,4.45a4,4,0,0,1-2.69,3.95v.12a4.2,4.2,0,0,1,3.73,4.35c0,3.57-2.83,5.34-6.91,5.34H102.9Zm5,7.75c3.13,0,4.4-1.17,4.4-3,0-2.13-1.47-2.93-4.3-2.93h-2.81v5.94Zm.47,8.62c3.13,0,5-1.12,5-3.58,0-2.26-1.79-3.28-5-3.28h-3.18v6.86Z"/>
      <path class="cls-8" d="M117.28,341.54l.45-1.82a3.18,3.18,0,0,0,1,.23c1.54,0,2.5-1.24,3-2.91l.3-1-5.42-13.51H119l2.76,7.5c.4,1.17.87,2.56,1.29,3.78h.13c.37-1.22.77-2.59,1.14-3.78l2.41-7.5H129l-5.09,14.61c-1,2.65-2.34,4.69-5,4.69A4.21,4.21,0,0,1,117.28,341.54Z"/>
      <path class="cls-8" d="M155.3,333.61l1.37-1.56a7.15,7.15,0,0,0,5,2.26c2.39,0,3.83-1.19,3.83-3s-1.32-2.46-3-3.23L159.88,327c-1.69-.72-3.71-2-3.71-4.67,0-2.81,2.44-4.85,5.74-4.85a7.48,7.48,0,0,1,5.37,2.26l-1.22,1.47a5.92,5.92,0,0,0-4.15-1.72c-2.06,0-3.4,1.05-3.4,2.69s1.59,2.43,3,3l2.61,1.12c2.11.91,3.75,2.16,3.75,4.86,0,2.89-2.38,5.17-6.18,5.17A8.68,8.68,0,0,1,155.3,333.61Z"/>
      <path class="cls-8" d="M171,331.83v-7.48h-2v-1.72l2.12-.12.27-3.78h1.89v3.78h3.65v1.84h-3.65v7.53c0,1.66.52,2.6,2.08,2.6a4.84,4.84,0,0,0,1.54-.34l.45,1.68a8.42,8.42,0,0,1-2.48.5C171.94,336.32,171,334.53,171,331.83Z"/>
      <path class="cls-8" d="M178.55,329.27c0-4.38,3-7.11,6.09-7.11,3.42,0,5.36,2.49,5.36,6.34a8.79,8.79,0,0,1-.1,1.29h-9.09c.15,2.88,1.91,4.72,4.47,4.72a5.81,5.81,0,0,0,3.38-1.07l.82,1.49a8,8,0,0,1-4.47,1.39C181.43,336.32,178.55,333.71,178.55,329.27Zm9.47-1.1c0-2.73-1.25-4.19-3.36-4.19-1.91,0-3.6,1.54-3.87,4.19Z"/>
      <path class="cls-8" d="M191.49,322.51h2.36l2.53,7.68c.43,1.31.85,2.7,1.27,4h.1c.4-1.27.84-2.66,1.24-4l2.56-7.68h2.24L199,336h-2.63Z"/>
      <path class="cls-8" d="M205.27,329.27c0-4.38,3-7.11,6.09-7.11,3.43,0,5.37,2.49,5.37,6.34a8.79,8.79,0,0,1-.1,1.29h-9.1c.15,2.88,1.92,4.72,4.48,4.72a5.8,5.8,0,0,0,3.37-1.07l.82,1.49a8,8,0,0,1-4.47,1.39C208.15,336.32,205.27,333.71,205.27,329.27Zm9.47-1.1c0-2.73-1.24-4.19-3.36-4.19-1.91,0-3.6,1.54-3.87,4.19Z"/>
      <path class="cls-8" d="M220.05,322.51h1.86l.2,1.94h.08a6.45,6.45,0,0,1,4.52-2.29c2.83,0,4.12,1.84,4.12,5.29V336h-2.26v-8.25c0-2.53-.77-3.6-2.56-3.6-1.39,0-2.33.69-3.7,2.06V336h-2.26Z"/>
      <path class="cls-8" d="M239.12,317.79h2.39l1.91,9.91c.35,2,.72,3.93,1.07,5.89h.1c.42-2,.87-3.93,1.32-5.89l2.5-9.91h2.09l2.56,9.91c.45,1.94.87,3.9,1.29,5.89h.13q.51-3,1-5.89l1.91-9.91h2.21L255.87,336h-2.76l-2.76-11c-.32-1.44-.59-2.76-.89-4.15h-.1c-.3,1.39-.62,2.71-.92,4.15l-2.71,11H243Z"/>
      <path class="cls-8" d="M261.58,329.27c0-4.38,2.95-7.11,6.08-7.11,3.43,0,5.37,2.49,5.37,6.34a8.79,8.79,0,0,1-.1,1.29h-9.09c.14,2.88,1.91,4.72,4.47,4.72a5.86,5.86,0,0,0,3.38-1.07l.82,1.49a8.07,8.07,0,0,1-4.48,1.39C264.46,336.32,261.58,333.71,261.58,329.27Zm9.46-1.1c0-2.73-1.24-4.19-3.35-4.19-1.92,0-3.61,1.54-3.88,4.19Z"/>
      <path class="cls-8" d="M276.35,322.51h1.87l.19,1.94h.08a6.45,6.45,0,0,1,4.52-2.29c2.83,0,4.12,1.84,4.12,5.29V336h-2.26v-8.25c0-2.53-.77-3.6-2.56-3.6-1.39,0-2.33.69-3.7,2.06V336h-2.26Z"/>
      <path class="cls-8" d="M290.48,338.58a3.82,3.82,0,0,1,2-3.05v-.1a2.44,2.44,0,0,1-1.25-2.21,3.27,3.27,0,0,1,1.52-2.51v-.1A4.72,4.72,0,0,1,291,327a4.81,4.81,0,0,1,5.07-4.82,5.64,5.64,0,0,1,1.89.35h4.7v1.74H299.9A3.86,3.86,0,0,1,301,327a4.63,4.63,0,0,1-4.92,4.7,4.68,4.68,0,0,1-2-.48,2,2,0,0,0-.87,1.62c0,.87.55,1.46,2.36,1.46h2.63c3.13,0,4.7,1,4.7,3.21,0,2.51-2.63,4.67-6.81,4.67C292.77,342.21,290.48,340.92,290.48,338.58Zm10.21-.69c0-1.25-1-1.67-2.75-1.67H295.6a7.53,7.53,0,0,1-1.74-.22,2.83,2.83,0,0,0-1.39,2.28c0,1.44,1.47,2.39,3.93,2.39S300.69,339.3,300.69,337.89ZM298.93,327a2.88,2.88,0,1,0-5.74,0,2.89,2.89,0,1,0,5.74,0Z"/>
    </g>
    <g>
      <path class="cls-9" d="M873.22,525a202.41,202.41,0,0,1-12.57,27.24v89.7H844.94V576.47c-2.75,3.27-5.5,6.54-8.12,9.42a106.83,106.83,0,0,0-8.65-16.63c11.92-11.78,23.31-30.38,29.86-49Zm41.51,30.91v13.75h33.92V583.8H914.73v14.8h35.62V613H914.73v29.07h-16V555.91h-5a145.65,145.65,0,0,1-17.15,25.4,106.73,106.73,0,0,0-11.92-10.87c11.52-11.78,21.87-30.64,27.76-49.37l15.06,3.8a153.77,153.77,0,0,1-6.42,16.24h50.81v14.8Z"/>
      <path class="cls-9" d="M965.41,583.14h49.89v58.28H999.72v-5.9H980.21v6.55h-14.8Zm14.8,14.93V620.6h19.51V598.07Zm80-25.79H983.48V524.87h76.74Zm-15.85-32.48H998.54v17.68h45.83Zm33.53,43.34v58.41h-15.72v-6h-20.82v6.55h-14.93V583.14Zm-15.72,37.46V598.07h-20.82V620.6Z"/>
      <path class="cls-9" d="M1108,558.92c-2.36,2.09-4.72,4.06-7.08,6-2.48-3.27-7.46-8.25-11-10.21a103.91,103.91,0,0,0,31-35.1l15.85,3q-3,4.9-6.29,9.82h20.17a88.55,88.55,0,0,0-4.06-9.43l14.66-4.06a89.57,89.57,0,0,1,6.29,13.49h37.19v11.91h-39.94v5.5h34.05V560h-34.05v5.23H1199v10.09h-34.18v5.76h43.08v11.78h-84.46v3.54H1108ZM1140.1,621c-9.3,7.46-25.27,14.4-39,17.55a69.87,69.87,0,0,0-9.7-11.92c13.36-1.83,28.95-6.15,37.06-11Zm19.77-7.86v28.68h-15.45V613.13h-50.81V600.69h50.81V594h15.45v6.68h51.34v12.44Zm-9.95-68.75h-26.45v5.5h26.45Zm0,15.59h-26.45v5.23h26.45Zm0,15.32h-26.45v5.76h26.45Zm23.7,39.15c11.53,3.8,28.81,9.95,37.85,14.14l-9.56,10.22c-8.38-4.06-25.28-10.87-37.32-15.32Z"/>
    </g>
    <g>
      <path class="cls-10" d="M870.19,522a204.23,204.23,0,0,1-12.57,27.24v89.7H841.9V573.43c-2.75,3.28-5.5,6.55-8.11,9.43a107.25,107.25,0,0,0-8.65-16.63c11.92-11.78,23.31-30.38,29.86-49Zm41.51,30.9v13.75h33.92v14.15H911.7v14.79h35.62V610H911.7V639h-16V552.87h-5a145.22,145.22,0,0,1-17.16,25.41,105.74,105.74,0,0,0-11.91-10.87c11.52-11.79,21.87-30.64,27.76-49.37l15.06,3.8a153.77,153.77,0,0,1-6.42,16.24h50.81v14.79Z"/>
      <path class="cls-10" d="M962.38,580.11h49.89v58.28H996.69v-5.9H977.18V639h-14.8ZM977.18,595v22.52h19.51V595Zm80-25.8H980.45v-47.4h76.74Zm-15.85-32.47H995.51v17.68h45.83Zm33.53,43.34v58.41h-15.72v-6h-20.82V639H1023.4V580.11Zm-15.72,37.45V595h-20.82v22.52Z"/>
      <path class="cls-10" d="M1105,555.89c-2.35,2.09-4.71,4.06-7.07,6-2.49-3.27-7.46-8.25-11-10.21a104,104,0,0,0,31-35.1l15.84,3q-2.94,4.92-6.28,9.82h20.16a87.21,87.21,0,0,0-4.05-9.42l14.66-4.06a89.47,89.47,0,0,1,6.29,13.48h37.19v11.92h-39.94v5.5h34v10.08h-34v5.24H1196v10.08h-34.18V578h43.08V589.8h-84.46v3.54H1105ZM1137.07,618c-9.3,7.46-25.28,14.4-39,17.54a69.65,69.65,0,0,0-9.69-11.91c13.36-1.84,28.94-6.16,37.06-11Zm19.77-7.86v28.68h-15.45V610.1h-50.81V597.66h50.81V591h15.45v6.68h51.33V610.1Zm-9.95-68.75h-26.45v5.5h26.45Zm0,15.58h-26.45v5.24h26.45Zm0,15.32h-26.45V578h26.45Zm23.7,39.16c11.52,3.8,28.81,10,37.85,14.14l-9.56,10.22c-8.38-4.06-25.28-10.87-37.32-15.32Z"/>
    </g>
    <g>
      <path class="cls-8" d="M838.57,491.71c7.76-6.86,11.76-12,11.76-16.3,0-2.86-1.54-4.82-4.47-4.82-2.07,0-3.79,1.32-5.18,2.93l-2.32-2.29c2.25-2.43,4.57-3.93,8-3.93,4.83,0,7.94,3.15,7.94,7.9,0,5.07-4,10.33-9.62,15.65,1.36-.14,3-.25,4.29-.25h6.58v3.5h-17Z"/>
      <path class="cls-8" d="M859.05,480.84c0-9.11,3.33-13.54,8.51-13.54s8.5,4.47,8.5,13.54-3.36,13.73-8.5,13.73S859.05,490,859.05,480.84Zm13.08,0c0-7.54-1.89-10.29-4.57-10.29S863,473.3,863,480.84s1.9,10.48,4.58,10.48S872.13,488.46,872.13,480.84Z"/>
      <path class="cls-8" d="M880.82,490.71h5.75v-18.3h-4.72V469.8a16,16,0,0,0,5.72-2h3.11v22.91h5.15v3.39h-15Z"/>
      <path class="cls-8" d="M912.23,471.27H899.87V467.8h16.94v2.5c-6.18,7.72-7.15,13.51-7.58,23.8H905C905.48,484.49,907.16,478.34,912.23,471.27Z"/>
    </g>
    <g>
      <path class="cls-8" d="M1130.18,491.71c7.75-6.86,11.76-12,11.76-16.3,0-2.86-1.54-4.82-4.47-4.82-2.07,0-3.79,1.32-5.18,2.93l-2.33-2.29c2.26-2.43,4.58-3.93,8-3.93,4.82,0,7.93,3.15,7.93,7.9,0,5.07-4,10.33-9.61,15.65,1.36-.14,3-.25,4.29-.25h6.57v3.5h-17Z"/>
      <path class="cls-8" d="M1150.66,480.84c0-9.11,3.32-13.54,8.5-13.54s8.51,4.47,8.51,13.54-3.36,13.73-8.51,13.73S1150.66,490,1150.66,480.84Zm13.08,0c0-7.54-1.9-10.29-4.58-10.29s-4.57,2.75-4.57,10.29,1.89,10.48,4.57,10.48S1163.74,488.46,1163.74,480.84Z"/>
      <path class="cls-8" d="M1172.42,490.71h5.76v-18.3h-4.72V469.8a16,16,0,0,0,5.72-2h3.11v22.91h5.14v3.39h-15Z"/>
      <path class="cls-8" d="M1193.9,489.24a5.88,5.88,0,0,0,4.33,2c3.18,0,5.93-2.58,6.18-10.08a7.91,7.91,0,0,1-5.79,3.07c-4.39,0-7.36-2.75-7.36-8.25,0-5.22,3.57-8.65,7.83-8.65,5,0,9.11,4.07,9.11,12.76,0,10.36-4.72,14.51-9.79,14.51a9,9,0,0,1-6.72-2.79ZM1204.34,478c-.39-5.18-2.36-7.54-5.22-7.54-2.25,0-4,2-4,5.47s1.5,5.29,4.26,5.29C1200.94,481.24,1202.77,480.31,1204.34,478Z"/>
    </g>
    <path class="cls-8" d="M918.76,490.6H1118.5a1.9,1.9,0,0,0,0-3.79H918.76c-2.43,0-2.43,3.79,0,3.79Z"/>
  </g>
</svg>
