<svg id="圖層_1" data-name="圖層 1" xmlns="http://www.w3.org/2000/svg" xmlns:xlink="http://www.w3.org/1999/xlink" viewBox="0 0 308.67 83">
  <defs>
    <style>
      .cls-1, .cls-4 {
        fill: none;
      }

      .cls-2 {
        clip-path: url(#clip-path);
      }

      .cls-3, .cls-6 {
        fill: #216cb5;
      }

      .cls-4, .cls-6 {
        stroke: #231815;
        stroke-miterlimit: 10;
        stroke-width: 2.17px;
      }

      .cls-5 {
        fill: #eeeeef;
      }

      .cls-7 {
        fill: #231815;
      }
    </style>
    <clipPath id="clip-path">
      <rect class="cls-1" x="-381.83" y="-135.5" width="275" height="380"/>
    </clipPath>
  </defs>
  <title>C</title>
  <g class="cls-2">
    <image width="6000" height="4000" transform="translate(-542.33 -161) scale(0.1)" xlink:href="../../../Downloads/DSC_7755.jpg"/>
  </g>
  <g>
    <circle class="cls-3" cx="44.53" cy="45.02" r="34.83"/>
    <circle class="cls-4" cx="40.21" cy="42.68" r="34.83"/>
    <g>
      <path class="cls-5" d="M34.34,62a13.22,13.22,0,0,1-10.21-4.4q-4-4.39-4-12.08a20.75,20.75,0,0,1,1.13-7,15.18,15.18,0,0,1,3.08-5.28A13.37,13.37,0,0,1,28.9,30a13.93,13.93,0,0,1,5.65-1.15,12,12,0,0,1,7.56,2.63A1.82,1.82,0,0,1,42.83,33a2.2,2.2,0,0,1-.55,1.49,1.92,1.92,0,0,1-1.4.68h-.17a2.49,2.49,0,0,1-1.4-.43,7.82,7.82,0,0,0-4.67-1.53,8.21,8.21,0,0,0-6.76,3.29c-1.72,2.2-2.59,5.15-2.59,8.86s.83,6.79,2.49,9a8,8,0,0,0,6.73,3.29,8.58,8.58,0,0,0,5.56-2,2.37,2.37,0,0,1,1.41-.47h.12a1.93,1.93,0,0,1,1.36.64,2.34,2.34,0,0,1,.55,1.53,2.05,2.05,0,0,1-.68,1.57A12.54,12.54,0,0,1,34.34,62Z"/>
      <path class="cls-5" d="M52.36,44a.86.86,0,0,1-.63.26.88.88,0,0,1-.64-.26.87.87,0,0,1-.26-.64V40a.13.13,0,0,0-.15-.15H47.56a.84.84,0,0,1-.6-.25.86.86,0,0,1,0-1.21.8.8,0,0,1,.6-.25h3.12c.1,0,.15,0,.15-.14V34.63a.86.86,0,0,1,.26-.63.88.88,0,0,1,.64-.26.89.89,0,0,1,.89.89V38c0,.1,0,.14.14.14h3.13a.79.79,0,0,1,.6.25.86.86,0,0,1-.6,1.46H52.76c-.1,0-.14.05-.14.15v3.33A.87.87,0,0,1,52.36,44Z"/>
      <path class="cls-5" d="M64.12,44a.9.9,0,0,1-.64.26.89.89,0,0,1-.89-.9V40c0-.1-.05-.15-.16-.15H59.32a.86.86,0,0,1-.6-1.46.79.79,0,0,1,.6-.25h3.11c.11,0,.16,0,.16-.14V34.63a.89.89,0,0,1,.89-.89.9.9,0,0,1,.64.26.85.85,0,0,1,.25.63V38a.12.12,0,0,0,.14.14h3.14a.82.82,0,0,1,.6.25.86.86,0,0,1-.6,1.46H64.51c-.09,0-.14.05-.14.15v3.33A.86.86,0,0,1,64.12,44Z"/>
    </g>
    <rect class="cls-6" x="95.99" y="25.14" width="121.82" height="35.08" rx="17.4" ry="17.4"/>
    <rect class="cls-4" x="95.99" y="25.14" width="207.29" height="35.08" rx="17.4" ry="17.4"/>
    <g>
      <path class="cls-7" d="M109.61,11.62a7.9,7.9,0,0,0,3.26,2.23,4.23,4.23,0,0,0-.71.83,8.84,8.84,0,0,1-3.69-3.06h-4.53a9.93,9.93,0,0,1-3.79,3.25,3.91,3.91,0,0,0-.69-.83,8.38,8.38,0,0,0,3.27-2.42H99.6v-.91h2.87V6.08h-2.2v-.9h2.2V3.79h1.06V5.18h5.26V3.79h1.09V5.18h2.17v.9h-2.17v4.63h2.8v.91Zm-3,4.09h5v.91H100.72v-.91h4.85V14.19h-2.95V13.3h2.95V12.08h1.08V13.3h3v.89h-3Zm-3.12-9.63v1h5.26v-1Zm0,2.79h5.26v-1h-5.26Zm0,1.84h5.26v-1h-5.26Z"/>
      <path class="cls-7" d="M115.9,15.22v1.14H115V11a9.31,9.31,0,0,1-.8,1.23,5,5,0,0,0-.46-1.14,13.87,13.87,0,0,0,2-5.55h-1.66v-1h4.32v1h-1.64a26.67,26.67,0,0,1-.9,3.39h2.33v6.25ZM117.46,10H115.9V14.2h1.56Zm5.94,5.73a9.39,9.39,0,0,0,.95,0h3a2.75,2.75,0,0,0-.35,1H124.3c-2,0-3.3-.41-4.16-2A4.42,4.42,0,0,1,118.61,17l-.77-.7c1.25-.9,1.67-2.58,1.84-4.42l.94.16c0,.42-.09.83-.16,1.23a3.08,3.08,0,0,0,1.9,2.19V11.24h-3.64V10.3h7.5l.17-.06.71.25a15.31,15.31,0,0,1-.84,2.07l-.86-.32a6.93,6.93,0,0,0,.4-1h-2.4v1.67h3.3v.93h-3.3Zm-3-8.41a9.25,9.25,0,0,1-1.48,2.05,2.62,2.62,0,0,0-.54-.76,7.62,7.62,0,0,0,1.73-2.45h-1.41V5.26h1.7V3.79h.91V5.26h1.38v.88H121.3V6.3c.32.32,1.22,1.31,1.42,1.57l-.59.69c-.16-.29-.51-.78-.83-1.23V9.82h-.91Zm4.07.25A6.56,6.56,0,0,1,123,9.48a3.09,3.09,0,0,0-.53-.73,6.32,6.32,0,0,0,1.83-2.61H123v-.9h1.46V3.79h.93V5.24h1.8v.9h-1.55c.51.61,1.51,1.89,1.75,2.26l-.67.76c-.24-.48-.85-1.48-1.33-2.21V9.82h-.93Z"/>
    </g>
    <g>
      <path class="cls-7" d="M199.61,9.27v.9H186.69v-.9h4.5V6.44H187.5V5.55h2.73a5.58,5.58,0,0,0-.91-1.42l.91-.37a5.16,5.16,0,0,1,1.06,1.51l-.63.28h4.19a10.55,10.55,0,0,0,1-1.79l1.06.35A13.59,13.59,0,0,1,196,5.55h2.85v.89h-3.82V9.27ZM189,6.63a6.89,6.89,0,0,1,1.17,2.11l-1,.37A6.82,6.82,0,0,0,188.16,7Zm-.38,4.42h9V17h-1.08v-.43h-6.89V17h-1.06Zm1.06.87v1.42h6.89V11.92Zm6.89,3.73V14.19h-6.89v1.46ZM192.2,9.27H194V6.44H192.2Zm3.73-.43a15.24,15.24,0,0,0,1.2-2.26l1,.31a20.78,20.78,0,0,1-1.32,2.24Z"/>
      <path class="cls-7" d="M204.58,10.71a18.83,18.83,0,0,1-1.2,3.74c.29.16.62.43,1.17.75a7.74,7.74,0,0,0,4,.73c1.86,0,4.2-.15,5.82-.31a4,4,0,0,0-.32,1.12c-1.08.07-3.82.16-5.55.16a7.9,7.9,0,0,1-4.23-.8c-.58-.35-1.13-.84-1.45-.84s-.81.91-1.22,1.82l-.75-1a6.2,6.2,0,0,1,1.45-1.61,12.54,12.54,0,0,0,1-3h-1.89c.39-.86.86-2.09,1.25-3.23h-1.63v-1h3c-.35,1-.81,2.26-1.19,3.26h1l.17-.05Zm-2-4.19c-.16-.63-.5-1.63-.74-2.38l1-.28c.26.76.57,1.72.76,2.34Zm4.09,8.35h-1V7.4h4.14c-.87-.42-1.9-.88-2.77-1.2l.69-.6c.62.21,1.33.5,2,.79a12,12,0,0,0,2-1.15h-6V4.39h7.08l.21-.06.65.51a11.71,11.71,0,0,1-2.92,2c.42.22.81.41,1.11.58h1.83v6.38c0,.54-.12.78-.49.94a5.81,5.81,0,0,1-2,.18,3.26,3.26,0,0,0-.29-.9c.68,0,1.29,0,1.46,0s.25-.06.25-.24V12.45h-2.52v2.36h-1V12.45H206.7Zm0-6.64V9.5h2.42V8.23Zm2.42,3.39V10.3H206.7v1.32Zm3.49-3.39h-2.52V9.5h2.52Zm0,3.39V10.3h-2.52v1.32Z"/>
    </g>
    <g>
      <path class="cls-7" d="M275.53,10.71a12.53,12.53,0,0,1-1.68,4.56,6,6,0,0,0-.52-1,11.47,11.47,0,0,0,1.49-3.74Zm1.13-1.08V17h-1V9.63h-2.11v-1h2.11V3.81h1V8.63h1.79v1ZM274.43,8a27.57,27.57,0,0,0-.78-3.06l.79-.19a26.39,26.39,0,0,1,.82,3Zm3,2.49c.26.38,1.25,2.17,1.45,2.61l-.74.8c-.24-.71-1-2.44-1.3-3Zm1.39-5.42c-.37,1-.84,2.26-1.21,3l-.7-.24a24.26,24.26,0,0,0,1-3.09Zm7.11,10.83c0,.52-.11.78-.5.94a5.44,5.44,0,0,1-1.87.16,3.29,3.29,0,0,0-.3-.9,13.5,13.5,0,0,0,1.42,0c.19,0,.23-.05.23-.21V14.67h-4.49a5.27,5.27,0,0,1-1.05,2.53,3.6,3.6,0,0,0-.75-.71,5.9,5.9,0,0,0,1-3.7V10.13h6.35Zm.84-7.45v.82h-8V8.45h3.42v-1h-2.9V6.68h2.9V5.79h-3.26V5h3.26V3.79h1.06V5h3.42v.82H283.2v.89h3.16v.78H283.2v1Zm-1.86,5.45V12.82h-4.35c0,.34,0,.7,0,1.08ZM280.56,11v1.08h4.35V11Z"/>
      <path class="cls-7" d="M294.65,11.66l-2.5.18v.94c0,.49-.09.7-.48.83a6.65,6.65,0,0,1-1.86.13,3.46,3.46,0,0,0-.3-.79c.69,0,1.24,0,1.42,0s.23-.06.23-.2v-.86l-2.87.17-.09-.81,3-.14v-.78a12.06,12.06,0,0,0,1.26-.48h-3.73V9.14h4.93l.19,0,.57.46a9.33,9.33,0,0,1-2.23,1.13v.38c.82,0,1.68-.1,2.52-.16Zm.18-6h-6.61V4.88h3a9.37,9.37,0,0,0-.44-.9l.93-.25a5.62,5.62,0,0,1,.62,1.15h2.47Zm-6.48,10.89a7.22,7.22,0,0,0,1.59-2.45l1,.23a7.87,7.87,0,0,1-1.6,2.63Zm.75-8V6.26h5.07V8.55ZM290,7.9h3.22v-1H290Zm3.35,6.46a12.89,12.89,0,0,1,.35,2.39l-1.06.15a15.37,15.37,0,0,0-.27-2.45ZM299.87,6c0,4.39,0,6.8.6,6.8.2,0,.26-.84.27-1.92a3.78,3.78,0,0,0,.67.61c-.1,1.7-.29,2.26-1,2.26-1.44,0-1.49-2.3-1.51-6.82h-1.41V7a12.07,12.07,0,0,1-.24,2.59,10.07,10.07,0,0,1,1.43,1.35l-.58.84a8.76,8.76,0,0,0-1.14-1.19,7.2,7.2,0,0,1-2.57,3.28,3.76,3.76,0,0,0-.71-.67,6.41,6.41,0,0,0,2.47-3.29c-.48-.38-1-.72-1.45-1l.52-.73c.38.25.77.51,1.16.8A11.9,11.9,0,0,0,296.49,7V6.9H295V6h1.52V3.78h1V6Zm-3.52,8.27a11.7,11.7,0,0,1,.85,2.41l-1,.23a13.86,13.86,0,0,0-.8-2.45Zm3-.17a14.25,14.25,0,0,1,1.58,2.54l-1,.33a15.77,15.77,0,0,0-1.53-2.61Z"/>
    </g>
  </g>
</svg>
