<svg id="圖層_1" data-name="圖層 1" xmlns="http://www.w3.org/2000/svg" xmlns:xlink="http://www.w3.org/1999/xlink" viewBox="0 0 308.67 83">
  <defs>
    <style>
      .cls-1, .cls-4 {
        fill: none;
      }

      .cls-2 {
        clip-path: url(#clip-path);
      }

      .cls-3, .cls-6 {
        fill: #00894e;
      }

      .cls-4, .cls-6 {
        stroke: #231815;
        stroke-miterlimit: 10;
        stroke-width: 2.17px;
      }

      .cls-5 {
        fill: #eeeeef;
      }

      .cls-7 {
        fill: #231815;
      }
    </style>
    <clipPath id="clip-path">
      <rect class="cls-1" x="-381.83" y="-135.5" width="275" height="380"/>
    </clipPath>
  </defs>
  <title>front</title>
  <g class="cls-2">
    <image width="6000" height="4000" transform="translate(-542.33 -161) scale(0.1)" xlink:href="../../../Downloads/DSC_7755.jpg"/>
  </g>
  <g>
    <circle class="cls-3" cx="44.53" cy="45.02" r="34.83"/>
    <circle class="cls-4" cx="40.21" cy="42.68" r="34.83"/>
    <g>
      <path class="cls-5" d="M34.08,34.58s0,.05,0,.09a.11.11,0,0,0,.09.07h4.4a1.09,1.09,0,0,1,.79.31,1.12,1.12,0,0,1-.79,1.9h-21a1.09,1.09,0,0,1-.79-.33,1.1,1.1,0,0,1,0-1.57,1.11,1.11,0,0,1,.79-.31H22.2a.14.14,0,0,0,.12-.07.09.09,0,0,0,0-.11A16.26,16.26,0,0,0,21,32.47a.92.92,0,0,1-.18-.54,1.38,1.38,0,0,1,0-.25.83.83,0,0,1,.53-.56A1.83,1.83,0,0,1,22,31a1.47,1.47,0,0,1,.46.07,1.71,1.71,0,0,1,.89.54c.41.52.77,1,1.1,1.5a1,1,0,0,1,.15.54,1.41,1.41,0,0,1-.05.35,1.07,1.07,0,0,1-.66.64s0,0,0,.08H31a.33.33,0,0,0,.3-.18,26.66,26.66,0,0,0,1.61-2.65,1.72,1.72,0,0,1,.81-.79,1.59,1.59,0,0,1,.64-.13,1.54,1.54,0,0,1,.46.08,1,1,0,0,1,.66.63.94.94,0,0,1,.08.36,1,1,0,0,1-.16.56C34.89,33.4,34.45,34.06,34.08,34.58ZM26.23,39a1.47,1.47,0,0,1,1.06.44,1.44,1.44,0,0,1,.44,1.06V52.17a3.37,3.37,0,0,1-.21,1.32,1.4,1.4,0,0,1-.78.71,6,6,0,0,1-2.5.41h0a1.35,1.35,0,0,1-.84-.28,1.59,1.59,0,0,1-.59-.76.75.75,0,0,1,.08-.68.65.65,0,0,1,.58-.32l.79,0a5.73,5.73,0,0,0,.69,0,.6.6,0,0,0,.38-.12.5.5,0,0,0,.11-.36V49.34q0-.18-.21-.18H20.42a.16.16,0,0,0-.18.18v4.1a1.1,1.1,0,0,1-.33.81,1.07,1.07,0,0,1-.8.34,1.05,1.05,0,0,1-.8-.34,1.1,1.1,0,0,1-.33-.81V40.52a1.46,1.46,0,0,1,.43-1.06A1.45,1.45,0,0,1,19.48,39Zm-.81,2.27a.19.19,0,0,0-.21-.21H20.42q-.18,0-.18.21V43a.16.16,0,0,0,.18.18h4.79q.21,0,.21-.18Zm-5.18,5.83a.16.16,0,0,0,.18.18h4.79q.21,0,.21-.18V45.29a.19.19,0,0,0-.21-.21H20.42q-.18,0-.18.21Zm10.58-7.53a1.13,1.13,0,0,1,.8-.32,1.09,1.09,0,0,1,1.11,1.12v8.36a1.09,1.09,0,0,1-.32.8,1,1,0,0,1-.79.32,1.09,1.09,0,0,1-.8-.32,1.06,1.06,0,0,1-.33-.8V40.39A1.06,1.06,0,0,1,30.82,39.59Zm4.86,12.27V39.73a1.15,1.15,0,0,1,.36-.84,1.16,1.16,0,0,1,.86-.36,1.12,1.12,0,0,1,.84.36,1.21,1.21,0,0,1,.34.84V51.88a3.55,3.55,0,0,1-.26,1.52,1.59,1.59,0,0,1-.91.78,8.29,8.29,0,0,1-2.93.46h0a1.48,1.48,0,0,1-.92-.33,2.08,2.08,0,0,1-.61-.85.8.8,0,0,1,.07-.75.73.73,0,0,1,.64-.34h2a.77.77,0,0,0,.42-.13A.48.48,0,0,0,35.68,51.86Z"/>
      <path class="cls-5" d="M48.63,47.6a.1.1,0,0,0,0,.12.25.25,0,0,0,.11,0L50,47.45a1,1,0,0,1,.78.17.88.88,0,0,1,.39.65.57.57,0,0,1,0,.18,1.25,1.25,0,0,1-.92,1.14l-6.6,1.66a1.06,1.06,0,0,1-.31,0,1.11,1.11,0,0,1-.61-.18,1.08,1.08,0,0,1-.53-.76.66.66,0,0,1,0-.28,1.09,1.09,0,0,1,.2-.62,1.13,1.13,0,0,1,.77-.53c1.47-.29,2.86-.58,4.15-.87a.05.05,0,0,0,0,0h0a.68.68,0,0,1-.41-.32.73.73,0,0,1-.1-.52,73.59,73.59,0,0,0,1.1-7.34,1,1,0,0,1,.4-.74,1.06,1.06,0,0,1,.61-.2.76.76,0,0,1,.21,0,1,1,0,0,1,.74.48,1.18,1.18,0,0,1,.2.64v.23Q49.14,45.52,48.63,47.6Zm.94-11.77a1.09,1.09,0,0,1,1.1,1.09,1.09,1.09,0,0,1-.32.77,1,1,0,0,1-.78.33h-6a1,1,0,0,1-.78-.33,1.09,1.09,0,0,1-.32-.77,1.09,1.09,0,0,1,1.1-1.09h1.83c.12,0,.18-.07.18-.2V32.19a1.06,1.06,0,0,1,.32-.78,1.07,1.07,0,0,1,1.53,0,1.06,1.06,0,0,1,.32.78v3.44a.18.18,0,0,0,.2.2ZM45.75,46a1.07,1.07,0,0,1-.26.71.94.94,0,0,1-.68.38.75.75,0,0,1-.69-.17.79.79,0,0,1-.31-.64,47.73,47.73,0,0,0-.71-6.17,1,1,0,0,1,.15-.69.89.89,0,0,1,.59-.38,1,1,0,0,1,.7.17.88.88,0,0,1,.39.57A32.6,32.6,0,0,1,45.75,46Zm20-5.62a1.05,1.05,0,0,1,.32.76,1,1,0,0,1-.32.76,1.05,1.05,0,0,1-.75.3h-5.1a.23.23,0,0,0-.25.18c-.29.78-.5,1.38-.64,1.78a.14.14,0,0,0,0,.13.13.13,0,0,0,.12.05h4.94a1.44,1.44,0,0,1,1.06.45,1.47,1.47,0,0,1,.44,1.06v6.67c0,.95-.24,1.56-.74,1.84a3.27,3.27,0,0,1-1.5.33h0a1.19,1.19,0,0,1-.74-.26,1.55,1.55,0,0,1-.48-.71.62.62,0,0,1,.06-.62.62.62,0,0,1,.55-.3h.43a.29.29,0,0,0,.21-.06.43.43,0,0,0,0-.24V46.61c0-.14-.06-.2-.18-.2H61.6c-.12,0-.18.06-.18.2v6.8a.91.91,0,0,1-.28.67.94.94,0,0,1-.66.28.91.91,0,0,1-.66-.28.92.92,0,0,1-.29-.67v-6.8c0-.14-.06-.2-.2-.2H57.75c-.14,0-.2.06-.2.2v6.85a.94.94,0,0,1-.27.67.9.9,0,0,1-.65.28.92.92,0,0,1-.66-.28.91.91,0,0,1-.28-.67V46.61c0-.14-.06-.2-.18-.2H54c-.12,0-.18.06-.18.2v7a1.06,1.06,0,0,1-.32.77,1,1,0,0,1-.78.32,1.08,1.08,0,0,1-1.09-1.09V45.85a1.46,1.46,0,0,1,.43-1.06,1.42,1.42,0,0,1,1.07-.45h3.21a.22.22,0,0,0,.23-.18c.13-.62.25-1.21.36-1.75,0-.14,0-.21-.16-.21H52a1.05,1.05,0,0,1-.75-.3,1,1,0,0,1-.32-.76,1.05,1.05,0,0,1,.32-.76,1,1,0,0,1,.75-.32H65A1,1,0,0,1,65.74,40.38Zm-2.52-8a1.15,1.15,0,0,1,1.63,0,1.12,1.12,0,0,1,.34.83v3.67a1.5,1.5,0,0,1-1.5,1.5H53.47a1.52,1.52,0,0,1-1.5-1.5V33.16A1.13,1.13,0,0,1,53.09,32a1,1,0,0,1,.77.33,1.06,1.06,0,0,1,.32.79v2.9a.19.19,0,0,0,.21.21h2.67a.19.19,0,0,0,.21-.21V32a1.08,1.08,0,0,1,.34-.8,1.12,1.12,0,0,1,1.63,0,1.09,1.09,0,0,1,.35.8v4.1c0,.14.06.21.2.21h2.9q.18,0,.18-.21V33.21A1.13,1.13,0,0,1,63.22,32.38Z"/>
    </g>
    <rect class="cls-6" x="95.99" y="25.14" width="146.46" height="35.08" rx="17.4" ry="17.4"/>
    <rect class="cls-4" x="95.99" y="25.14" width="207.29" height="35.08" rx="17.4" ry="17.4"/>
    <g>
      <path class="cls-7" d="M109.61,11.62a7.9,7.9,0,0,0,3.26,2.23,4.23,4.23,0,0,0-.71.83,8.84,8.84,0,0,1-3.69-3.06h-4.53a9.93,9.93,0,0,1-3.79,3.25,3.91,3.91,0,0,0-.69-.83,8.38,8.38,0,0,0,3.27-2.42H99.6v-.91h2.87V6.08h-2.2V5.19h2.2V3.79h1.06v1.4h5.26V3.79h1.09v1.4h2.17v.89h-2.17v4.63h2.8v.91Zm-3,4.09h5v.91H100.72v-.91h4.85V14.19h-2.95V13.3h2.95V12.08h1.08V13.3h3v.89h-3Zm-3.12-9.63v1h5.26v-1Zm0,2.79h5.26v-1h-5.26Zm0,1.84h5.26v-1h-5.26Z"/>
      <path class="cls-7" d="M115.9,15.22v1.14H115V11a9.31,9.31,0,0,1-.8,1.23,5,5,0,0,0-.46-1.14,13.87,13.87,0,0,0,2-5.55h-1.66v-1h4.32v1h-1.64a26.67,26.67,0,0,1-.9,3.39h2.33v6.25ZM117.46,10H115.9V14.2h1.56Zm5.94,5.73a9.39,9.39,0,0,0,.95,0h3a2.75,2.75,0,0,0-.35,1H124.3c-2,0-3.3-.41-4.16-2.05A4.41,4.41,0,0,1,118.61,17l-.77-.7c1.25-.9,1.67-2.58,1.84-4.42l.94.16c0,.42-.09.83-.16,1.23a3.08,3.08,0,0,0,1.9,2.19V11.24h-3.64V10.3h7.5l.17-.06.71.25a14.79,14.79,0,0,1-.84,2.07l-.86-.32a6.93,6.93,0,0,0,.4-1h-2.4v1.67h3.3v.93h-3.3Zm-3-8.41a9.25,9.25,0,0,1-1.48,2.05,2.62,2.62,0,0,0-.54-.76,7.62,7.62,0,0,0,1.73-2.45h-1.41V5.26h1.7V3.79h.91V5.26h1.38v.88H121.3V6.3c.32.32,1.22,1.31,1.42,1.57l-.59.69c-.16-.29-.51-.78-.83-1.23V9.82h-.91Zm4.07.25A6.56,6.56,0,0,1,123,9.48a3.09,3.09,0,0,0-.53-.73,6.32,6.32,0,0,0,1.83-2.61H123v-.9h1.46V3.79h.93V5.24h1.8v.9h-1.55c.51.61,1.51,1.89,1.75,2.26l-.67.76c-.24-.48-.85-1.48-1.33-2.21V9.82h-.93Z"/>
    </g>
    <g>
      <path class="cls-7" d="M199.61,9.27v.9H186.69v-.9h4.5V6.44H187.5V5.55h2.73a5.58,5.58,0,0,0-.91-1.42l.91-.37a5.16,5.16,0,0,1,1.06,1.51l-.63.28h4.19a10.55,10.55,0,0,0,1-1.79l1.06.35A13.59,13.59,0,0,1,196,5.55h2.85v.89h-3.82V9.27ZM189,6.63a7,7,0,0,1,1.17,2.1l-1,.38A6.82,6.82,0,0,0,188.16,7Zm-.38,4.42h9V17h-1.08v-.43h-6.89V17h-1.06Zm1.06.87v1.43h6.89V11.92Zm6.89,3.73V14.19h-6.89v1.46ZM192.2,9.27H194V6.44H192.2Zm3.73-.43a15.24,15.24,0,0,0,1.2-2.26l1,.31a20.78,20.78,0,0,1-1.32,2.24Z"/>
      <path class="cls-7" d="M204.58,10.71a18.83,18.83,0,0,1-1.2,3.74c.29.16.62.43,1.17.75a7.74,7.74,0,0,0,4,.73c1.86,0,4.2-.15,5.82-.31a4,4,0,0,0-.32,1.12c-1.08.07-3.82.16-5.55.16a7.9,7.9,0,0,1-4.23-.8c-.58-.35-1.13-.84-1.45-.84s-.81.91-1.22,1.82l-.75-1a6.2,6.2,0,0,1,1.45-1.61,12.54,12.54,0,0,0,1-3h-1.89c.39-.86.86-2.09,1.25-3.23h-1.63v-1h3c-.35,1-.81,2.26-1.19,3.26h1l.17-.05Zm-2-4.19c-.16-.63-.5-1.63-.74-2.38l1-.28c.26.76.57,1.71.76,2.34Zm4.09,8.35h-1V7.4h4.14c-.87-.42-1.9-.88-2.77-1.2l.69-.6c.62.21,1.33.5,2,.79a12,12,0,0,0,2-1.15h-6V4.39h7.08l.21-.06.65.51a12,12,0,0,1-2.92,2c.42.22.81.41,1.11.58h1.83v6.38c0,.54-.12.78-.49.94a5.81,5.81,0,0,1-2,.18,3.26,3.26,0,0,0-.29-.9c.68,0,1.29,0,1.46,0s.25-.06.25-.24V12.45h-2.52v2.36h-1V12.45H206.7Zm0-6.64V9.5h2.42V8.23Zm2.42,3.39V10.3H206.7v1.32Zm3.49-3.39h-2.52V9.5h2.52Zm0,3.39V10.3h-2.52v1.32Z"/>
    </g>
    <g>
      <path class="cls-7" d="M275.53,10.71a12.53,12.53,0,0,1-1.68,4.56,6,6,0,0,0-.52-1,11.56,11.56,0,0,0,1.49-3.74Zm1.13-1.07V17h-1V9.64h-2.11v-1h2.11V3.81h1V8.63h1.79v1ZM274.43,8a27.57,27.57,0,0,0-.78-3.06l.79-.19a26.39,26.39,0,0,1,.82,3Zm3,2.49c.26.38,1.25,2.17,1.45,2.61l-.74.8c-.24-.71-1-2.44-1.3-3Zm1.39-5.42c-.37,1-.84,2.26-1.21,3l-.7-.24a24.26,24.26,0,0,0,1-3.09Zm7.11,10.83c0,.52-.11.78-.5.94a5.44,5.44,0,0,1-1.87.16,3.29,3.29,0,0,0-.3-.9,13.5,13.5,0,0,0,1.42,0c.19,0,.23-.05.23-.21V14.66h-4.49a5.26,5.26,0,0,1-1.05,2.54,3.6,3.6,0,0,0-.75-.71,5.89,5.89,0,0,0,1-3.69V10.13h6.35Zm.84-7.45v.82h-8V8.45h3.42v-1h-2.9V6.68h2.9V5.79h-3.26V5h3.26V3.79h1.06V5h3.42v.82H283.2v.89h3.16v.78H283.2v1Zm-1.86,5.45V12.82h-4.35c0,.34,0,.7,0,1.08ZM280.56,11v1.08h4.35V11Z"/>
      <path class="cls-7" d="M294.65,11.66l-2.5.18v.94c0,.49-.09.7-.48.83a6.65,6.65,0,0,1-1.86.13,3.46,3.46,0,0,0-.3-.79c.69,0,1.24,0,1.42,0s.23-.06.23-.2v-.86l-2.87.17-.09-.81,3-.14v-.78a12.06,12.06,0,0,0,1.26-.48h-3.73V9.14h4.93l.19,0,.57.46a9.33,9.33,0,0,1-2.23,1.13v.38c.82,0,1.68-.1,2.52-.16Zm.18-6h-6.61V4.88h3a9.37,9.37,0,0,0-.44-.9l.93-.25a5.62,5.62,0,0,1,.62,1.15h2.47Zm-6.48,10.89a7.22,7.22,0,0,0,1.59-2.45l1,.23a7.87,7.87,0,0,1-1.6,2.63Zm.75-8V6.26h5.07V8.55ZM290,7.9h3.22v-1H290Zm3.35,6.46a12.89,12.89,0,0,1,.35,2.39l-1.06.15a15.37,15.37,0,0,0-.27-2.45ZM299.87,6c0,4.39,0,6.8.6,6.8.2,0,.26-.84.27-1.92a3.78,3.78,0,0,0,.67.61c-.1,1.7-.29,2.26-1,2.26-1.44,0-1.49-2.3-1.51-6.82h-1.41V7a12.07,12.07,0,0,1-.24,2.59,10.07,10.07,0,0,1,1.43,1.35l-.58.84a8.76,8.76,0,0,0-1.14-1.19,7.2,7.2,0,0,1-2.57,3.28,3.76,3.76,0,0,0-.71-.67,6.41,6.41,0,0,0,2.47-3.29c-.48-.38-1-.72-1.45-1l.52-.73c.38.25.77.51,1.16.8A11.9,11.9,0,0,0,296.49,7V6.9H295V6h1.52V3.78h1V6Zm-3.52,8.27a11.7,11.7,0,0,1,.85,2.41l-1,.23a13.6,13.6,0,0,0-.8-2.45Zm3-.17a14.25,14.25,0,0,1,1.58,2.54l-1,.33a15.77,15.77,0,0,0-1.53-2.61Z"/>
    </g>
  </g>
</svg>
