<svg id="圖層_1" data-name="圖層 1" xmlns="http://www.w3.org/2000/svg" xmlns:xlink="http://www.w3.org/1999/xlink" viewBox="0 0 308.67 83">
  <defs>
    <style>
      .cls-1 {
        fill: none;
      }

      .cls-2 {
        clip-path: url(#clip-path);
      }

      .cls-3 {
        fill: #9e9e9f;
      }

      .cls-4 {
        fill: #231815;
      }
    </style>
    <clipPath id="clip-path">
      <rect class="cls-1" x="-381.83" y="-135.5" width="275" height="380"/>
    </clipPath>
  </defs>
  <title>mail</title>
  <g class="cls-2">
    <image width="6000" height="4000" transform="translate(-542.33 -161) scale(0.1)" xlink:href="../../../Downloads/DSC_7755.jpg"/>
  </g>
  <g>
    <rect class="cls-3" x="22.33" y="31.08" width="37.33" height="28.44" rx="3.51" ry="3.51"/>
    <path d="M56,29.62v23.6s-.05.07-.05.11a3.42,3.42,0,0,1-3.64,2.85H20.9a3.41,3.41,0,0,1-3.62-3.59V30.26a3.49,3.49,0,0,1,3.55-3.59H44.62c2.65,0,5.3,0,8,0a3.3,3.3,0,0,1,3.15,2A7.24,7.24,0,0,1,56,29.62ZM21.19,29,36.65,44.29,52,29Zm.06,24.93H52L41.19,43.1l-3.51,3.52a1.17,1.17,0,0,1-1.9,0l-3.41-3.38L32.12,43Zm-1.69-1.7L30.43,41.31,19.56,30.54Zm34.17,0V30.71L43,41.46Z"/>
  </g>
  <g>
    <path class="cls-4" d="M99.48,47.33l.86-1.15a4.7,4.7,0,0,0,3.08,1.22c1.38,0,2-.72,2-1.62,0-1.05-1.22-1.53-2.36-2-1.46-.53-3.1-1.24-3.1-3s1.32-2.94,3.57-2.94A5.38,5.38,0,0,1,106.8,39L106,40.16a3.91,3.91,0,0,0-2.39-.91c-1.3,0-1.89.68-1.89,1.49,0,1,1.13,1.35,2.29,1.79,1.51.58,3.18,1.19,3.18,3.16,0,1.68-1.34,3.07-3.79,3.07A6.29,6.29,0,0,1,99.48,47.33Z"/>
    <path class="cls-4" d="M108.43,47.33l.86-1.15a4.68,4.68,0,0,0,3.07,1.22c1.38,0,2-.72,2-1.62,0-1.05-1.23-1.53-2.37-2-1.45-.53-3.1-1.24-3.1-3s1.32-2.94,3.58-2.94A5.35,5.35,0,0,1,115.74,39l-.84,1.12a3.9,3.9,0,0,0-2.38-.91c-1.3,0-1.9.68-1.9,1.49,0,1,1.13,1.35,2.3,1.79,1.51.58,3.17,1.19,3.17,3.16,0,1.68-1.34,3.07-3.78,3.07A6.24,6.24,0,0,1,108.43,47.33Z"/>
    <path class="cls-4" d="M118.54,38.14H120l.15,1.49h.06a5,5,0,0,1,3.48-1.76c2.18,0,3.17,1.42,3.17,4.07v6.57h-1.74V42.17c0-2-.59-2.77-2-2.77-1.07,0-1.79.53-2.84,1.59v7.52h-1.74Z"/>
    <path class="cls-4" d="M130.52,46.24a3.15,3.15,0,0,0,2.35,1.07c1.81,0,3.38-1.49,3.51-5.85a4.31,4.31,0,0,1-3.22,1.74c-2.33,0-3.86-1.51-3.86-4.41,0-2.71,1.83-4.55,4-4.55,2.69,0,4.7,2.22,4.7,6.67,0,5.67-2.45,7.85-5.08,7.85a4.45,4.45,0,0,1-3.36-1.43ZM136.37,40c-.2-2.88-1.26-4.41-3.06-4.41-1.34,0-2.37,1.26-2.37,3.17s.84,3.11,2.5,3.11A3.7,3.7,0,0,0,136.37,40Z"/>
    <path class="cls-4" d="M141.13,46.24a3.15,3.15,0,0,0,2.35,1.07c1.81,0,3.38-1.49,3.51-5.85a4.31,4.31,0,0,1-3.23,1.74c-2.33,0-3.86-1.51-3.86-4.41,0-2.71,1.84-4.55,4-4.55,2.69,0,4.69,2.22,4.69,6.67,0,5.67-2.44,7.85-5.08,7.85a4.45,4.45,0,0,1-3.36-1.43ZM147,40c-.19-2.88-1.26-4.41-3.05-4.41-1.34,0-2.37,1.26-2.37,3.17s.84,3.11,2.5,3.11A3.67,3.67,0,0,0,147,40Z"/>
    <path class="cls-4" d="M150.61,41.46c0-4.87,1.7-7.22,4.37-7.22s4.36,2.37,4.36,7.22-1.7,7.3-4.36,7.3S150.61,46.33,150.61,41.46Zm7,0c0-4.08-1.07-5.8-2.66-5.8s-2.67,1.72-2.67,5.8,1.07,5.91,2.67,5.91S157.64,45.59,157.64,41.46Z"/>
    <path class="cls-4" d="M161.12,47.48c4.39-3.84,6.42-6.63,6.42-9A2.47,2.47,0,0,0,165,35.67a3.93,3.93,0,0,0-2.91,1.63l-1-1a5.34,5.34,0,0,1,4.13-2.07,3.84,3.84,0,0,1,4.07,4.15c0,2.79-2.2,5.63-5.49,8.75.73-.06,1.59-.14,2.3-.14h3.87v1.51h-8.8Z"/>
    <path class="cls-4" d="M171.82,41.46c0-4.87,1.7-7.22,4.37-7.22s4.36,2.37,4.36,7.22-1.7,7.3-4.36,7.3S171.82,46.33,171.82,41.46Zm7,0c0-4.08-1.07-5.8-2.66-5.8s-2.67,1.72-2.67,5.8,1.07,5.91,2.67,5.91S178.85,45.59,178.85,41.46Z"/>
    <path class="cls-4" d="M190.05,36.76a3,3,0,0,0-2.26-1.07c-1.91,0-3.53,1.48-3.61,5.83a4.37,4.37,0,0,1,3.19-1.7c2.37,0,3.88,1.47,3.88,4.39,0,2.72-1.83,4.55-4,4.55-2.69,0-4.68-2.31-4.68-6.93,0-5.49,2.46-7.59,5.18-7.59A4.29,4.29,0,0,1,191,35.67Zm-.44,7.45c0-1.89-.82-3.09-2.52-3.09a3.66,3.66,0,0,0-2.87,1.8c.21,2.9,1.26,4.48,3,4.48C188.58,47.4,189.61,46.13,189.61,44.21Z"/>
    <path class="cls-4" d="M193.16,44.18c0-5.72,4.15-9.46,8.91-9.46,4.3,0,7,2.86,7,7.07,0,3.72-2.33,5.67-4.26,5.67a2,2,0,0,1-2.2-1.62h-.06A3.68,3.68,0,0,1,200,47.31c-1.46,0-2.56-1.09-2.56-3,0-2.25,1.6-5,4.1-5a1.85,1.85,0,0,1,1.7,1h0l.25-.87h1.15l-.84,4.26c-.41,1.72,0,2.5,1.16,2.5,1.36,0,2.89-1.63,2.89-4.4,0-3.45-2.05-6-5.93-6s-7.47,3.25-7.47,8.24c0,4.16,2.72,6.53,6.35,6.53a7,7,0,0,0,3.47-.95l.46,1a7.72,7.72,0,0,1-4.05,1.09C196.51,51.82,193.16,49.14,193.16,44.18Zm9.12.66.61-3.4a1.51,1.51,0,0,0-1.38-.89c-1.68,0-2.71,2-2.71,3.63,0,1.37.65,1.93,1.51,1.93A2.79,2.79,0,0,0,202.28,44.84Z"/>
    <path class="cls-4" d="M211.13,50.5a2.92,2.92,0,0,1,1.55-2.35v-.08a1.86,1.86,0,0,1-1-1.7,2.54,2.54,0,0,1,1.17-1.93v-.07a3.65,3.65,0,0,1-1.36-2.79,3.7,3.7,0,0,1,3.9-3.71,4.36,4.36,0,0,1,1.45.27h3.61v1.34h-2.12a2.93,2.93,0,0,1,.84,2.14,3.56,3.56,0,0,1-3.78,3.61,3.61,3.61,0,0,1-1.55-.37,1.56,1.56,0,0,0-.67,1.25c0,.66.42,1.12,1.82,1.12h2c2.41,0,3.61.77,3.61,2.47,0,1.93-2,3.59-5.23,3.59C212.89,53.29,211.13,52.29,211.13,50.5ZM219,50c0-1-.74-1.28-2.12-1.28h-1.79a5.53,5.53,0,0,1-1.34-.17,2.19,2.19,0,0,0-1.07,1.76c0,1.11,1.12,1.83,3,1.83S219,51.05,219,50Zm-1.36-8.38a2.22,2.22,0,1,0-4.41,0,2.22,2.22,0,1,0,4.41,0Z"/>
    <path class="cls-4" d="M222.69,38.14h1.43l.16,1.51h.05a4.58,4.58,0,0,1,3.23-1.78,2.74,2.74,0,0,1,2.87,2c1.07-1.17,2.16-2,3.42-2,2.14,0,3.15,1.42,3.15,4.07v6.57h-1.74V42.17c0-2-.61-2.77-1.93-2.77A3.82,3.82,0,0,0,230.72,41v7.52H229V42.17c0-2-.61-2.77-1.93-2.77A3.84,3.84,0,0,0,224.43,41v7.52h-1.74Z"/>
    <path class="cls-4" d="M239.74,45.82c0-2.26,2-3.38,6.38-3.88,0-1.34-.44-2.62-2.14-2.62a5.74,5.74,0,0,0-3.11,1.11l-.69-1.2a7.78,7.78,0,0,1,4.09-1.36c2.52,0,3.59,1.7,3.59,4.26v6.38h-1.44l-.15-1.24h-.06a5.53,5.53,0,0,1-3.43,1.49A2.81,2.81,0,0,1,239.74,45.82Zm6.38.17v-2.9c-3.5.42-4.68,1.28-4.68,2.61s.8,1.67,1.83,1.67A4.23,4.23,0,0,0,246.12,46Z"/>
    <path class="cls-4" d="M250.84,34.87a1.21,1.21,0,0,1,2.41,0,1.21,1.21,0,0,1-2.41,0Zm.33,3.27h1.74V48.51h-1.74Z"/>
    <path class="cls-4" d="M256.42,46.45V33.31h1.74V46.56c0,.54.23.75.5.75a1.46,1.46,0,0,0,.36,0l.25,1.34a2.9,2.9,0,0,1-1,.15C257,48.76,256.42,47.92,256.42,46.45Z"/>
    <path class="cls-4" d="M261.51,47.44a1.26,1.26,0,1,1,2.52,0,1.26,1.26,0,1,1-2.52,0Z"/>
    <path class="cls-4" d="M266.15,43.34c0-3.46,2.35-5.47,5-5.47a4.46,4.46,0,0,1,3,1.22l-.89,1.17a3.07,3.07,0,0,0-2.09-.94c-1.87,0-3.24,1.63-3.24,4s1.29,4,3.21,4a3.66,3.66,0,0,0,2.44-1l.75,1.16A5,5,0,0,1,271,48.76C268.27,48.76,266.15,46.77,266.15,43.34Z"/>
    <path class="cls-4" d="M275.42,43.34c0-3.46,2.27-5.47,4.81-5.47s4.82,2,4.82,5.47-2.28,5.42-4.82,5.42S275.42,46.77,275.42,43.34Zm7.83,0c0-2.39-1.22-4-3-4s-3,1.63-3,4,1.21,4,3,4S283.25,45.72,283.25,43.34Z"/>
    <path class="cls-4" d="M287.78,38.14h1.44l.15,1.51h.06a4.55,4.55,0,0,1,3.22-1.78,2.74,2.74,0,0,1,2.87,2c1.07-1.17,2.16-2,3.42-2,2.14,0,3.15,1.42,3.15,4.07v6.57h-1.74V42.17c0-2-.61-2.77-1.93-2.77A3.82,3.82,0,0,0,295.81,41v7.52h-1.74V42.17c0-2-.61-2.77-1.93-2.77A3.86,3.86,0,0,0,289.52,41v7.52h-1.74Z"/>
  </g>
</svg>
