<svg id="圖層_1" data-name="圖層 1" xmlns="http://www.w3.org/2000/svg" xmlns:xlink="http://www.w3.org/1999/xlink" viewBox="0 0 308.67 83">
  <defs>
    <style>
      .cls-1, .cls-4 {
        fill: none;
      }

      .cls-2 {
        clip-path: url(#clip-path);
      }

      .cls-3, .cls-6 {
        fill: #00a7dd;
      }

      .cls-4, .cls-6 {
        stroke: #231815;
        stroke-miterlimit: 10;
      }

      .cls-4 {
        stroke-width: 2.17px;
      }

      .cls-5 {
        fill: #eeeeef;
      }

      .cls-6 {
        stroke-width: 2.65px;
      }

      .cls-7 {
        fill: #231815;
      }
    </style>
    <clipPath id="clip-path">
      <rect class="cls-1" x="-381.83" y="-135.5" width="275" height="380"/>
    </clipPath>
  </defs>
  <title>Ps</title>
  <g class="cls-2">
    <image width="6000" height="4000" transform="translate(-542.33 -161) scale(0.1)" xlink:href="../../../Downloads/DSC_7755.jpg"/>
  </g>
  <g>
    <g>
      <circle class="cls-3" cx="44.53" cy="45.66" r="34.83"/>
      <circle class="cls-4" cx="40.21" cy="43.32" r="34.83"/>
      <g>
        <path class="cls-5" d="M27.6,58.7a2.54,2.54,0,0,1-2.51-2.51v-27a2.54,2.54,0,0,1,2.51-2.51h7.22Q47,26.67,47,36.36q0,5.05-3.3,7.62A13.79,13.79,0,0,1,35,46.55h-4.5a.3.3,0,0,0-.34.34v9.3A2.44,2.44,0,0,1,29.42,58a2.36,2.36,0,0,1-1.78.75Zm2.55-16.48c0,.2.11.29.34.29h4c2.55,0,4.44-.5,5.69-1.5a5.62,5.62,0,0,0,1.87-4.65q0-3.11-1.89-4.36t-5.88-1.25H30.49c-.23,0-.34.1-.34.3Z"/>
        <path class="cls-5" d="M55.08,59.17a12.17,12.17,0,0,1-6.4-1.84,1.44,1.44,0,0,1-.74-1.1v-.3a1.64,1.64,0,0,1,.33-1,1.78,1.78,0,0,1,1.14-.7h.3a1.7,1.7,0,0,1,1,.3,8.53,8.53,0,0,0,4.49,1.36,4.21,4.21,0,0,0,2.71-.77,2.52,2.52,0,0,0,.94-2,2.31,2.31,0,0,0-.15-.83,1.8,1.8,0,0,0-.57-.73c-.28-.24-.52-.43-.7-.57a4.81,4.81,0,0,0-1-.56l-1-.44-1.15-.44a19.85,19.85,0,0,1-2.12-.92,12.76,12.76,0,0,1-1.84-1.16,4.77,4.77,0,0,1-1.47-1.71,5,5,0,0,1-.5-2.25,5.48,5.48,0,0,1,2-4.36,8,8,0,0,1,5.35-1.71A10.43,10.43,0,0,1,61,38.93a1.45,1.45,0,0,1,.7,1.07v.26a1.55,1.55,0,0,1-.33,1,1.77,1.77,0,0,1-1.14.67,1.69,1.69,0,0,1-.33,0,1.82,1.82,0,0,1-1-.26,6.93,6.93,0,0,0-3.24-.88,3.74,3.74,0,0,0-2.46.7,2.26,2.26,0,0,0-.85,1.84,1.78,1.78,0,0,0,.24.9,2.63,2.63,0,0,0,.55.7,4.28,4.28,0,0,0,.94.59q.63.31,1.05.48l1.27.5.37.11,1.76.71a13,13,0,0,1,1.61.85,6.28,6.28,0,0,1,1.45,1.16,5.52,5.52,0,0,1,.9,1.53,5.22,5.22,0,0,1,.39,2,5.66,5.66,0,0,1-2.1,4.51A8.65,8.65,0,0,1,55.08,59.17Z"/>
      </g>
    </g>
    <rect class="cls-6" x="95.99" y="25.78" width="117.46" height="35.08" rx="17.54" ry="17.54"/>
    <rect class="cls-4" x="95.99" y="25.78" width="207.29" height="35.08" rx="17.4" ry="17.4"/>
    <g>
      <path class="cls-7" d="M109.61,11a8,8,0,0,0,3.26,2.23,4,4,0,0,0-.71.83A8.91,8.91,0,0,1,108.47,11h-4.53a9.9,9.9,0,0,1-3.79,3.24,3.85,3.85,0,0,0-.69-.82A8.38,8.38,0,0,0,102.73,11H99.6v-.92h2.87V5.44h-2.2v-.9h2.2V3.15h1.06V4.54h5.26V3.15h1.09V4.54h2.17v.9h-2.17v4.62h2.8V11Zm-3,4.09h5V16H100.72v-.91h4.85V13.54h-2.95v-.88h2.95V11.44h1.08v1.22h3v.88h-3Zm-3.12-9.63v1h5.26v-1Zm0,2.78h5.26v-1h-5.26Zm0,1.84h5.26V9h-5.26Z"/>
      <path class="cls-7" d="M115.9,14.57v1.15H115V10.4a10,10,0,0,1-.8,1.23,4.87,4.87,0,0,0-.46-1.14,13.86,13.86,0,0,0,2-5.56h-1.66v-1h4.32v1h-1.64a26.39,26.39,0,0,1-.9,3.4h2.33v6.24Zm1.56-5.23H115.9v4.22h1.56Zm5.94,5.73c.29,0,.61,0,.95,0s2.52,0,3,0a2.88,2.88,0,0,0-.35,1H124.3c-2,0-3.3-.41-4.16-2.05a4.38,4.38,0,0,1-1.53,2.36l-.77-.69c1.25-.9,1.67-2.58,1.84-4.42l.94.16c0,.42-.09.82-.16,1.23a3.08,3.08,0,0,0,1.9,2.19V10.6h-3.64V9.66h7.5l.17-.06.71.25a15.86,15.86,0,0,1-.84,2.07l-.86-.32a7.43,7.43,0,0,0,.4-1h-2.4v1.67h3.3v.93h-3.3Zm-3-8.41a9.17,9.17,0,0,1-1.48,2,2.71,2.71,0,0,0-.54-.75A7.62,7.62,0,0,0,120.1,5.5h-1.41V4.61h1.7V3.15h.91V4.61h1.38V5.5H121.3v.16c.32.32,1.22,1.3,1.42,1.56l-.59.7c-.16-.29-.51-.78-.83-1.23V9.18h-.91Zm4.07.24A6.43,6.43,0,0,1,123,8.83a3.26,3.26,0,0,0-.53-.72,6.32,6.32,0,0,0,1.83-2.61H123V4.6h1.46V3.15h.93V4.6h1.8v.9h-1.55c.5.61,1.51,1.88,1.75,2.26l-.67.75c-.24-.47-.85-1.47-1.33-2.2V9.18h-.93Z"/>
    </g>
    <g>
      <path class="cls-7" d="M199.61,8.63v.9H186.69v-.9h4.5V5.8H187.5V4.9h2.73a5.48,5.48,0,0,0-.91-1.42l.91-.36a5.16,5.16,0,0,1,1.06,1.51l-.63.27h4.19a10.1,10.1,0,0,0,1-1.78l1.06.35A12,12,0,0,1,196,4.9h2.85v.9h-3.82V8.63ZM189,6a6.85,6.85,0,0,1,1.17,2.1l-1,.38a7,7,0,0,0-1.1-2.15Zm-.38,4.42h9v5.9h-1.08v-.43h-6.89v.49h-1.06Zm1.06.87V12.7h6.89V11.28ZM196.61,15V13.54h-6.89V15ZM192.2,8.63H194V5.8H192.2Zm3.73-.44a14.75,14.75,0,0,0,1.2-2.26l1,.32a19.64,19.64,0,0,1-1.32,2.23Z"/>
      <path class="cls-7" d="M204.58,10.06a17.82,17.82,0,0,1-1.2,3.74c.29.16.62.44,1.17.76a7.77,7.77,0,0,0,4,.72c1.87,0,4.2-.14,5.82-.3a4,4,0,0,0-.32,1.11c-1.08.08-3.82.16-5.55.16a8,8,0,0,1-4.23-.79c-.58-.35-1.13-.84-1.45-.84s-.81.91-1.22,1.82l-.75-1a6.38,6.38,0,0,1,1.45-1.61,12.54,12.54,0,0,0,1-3h-1.89c.39-.86.86-2.09,1.25-3.23h-1.62v-1h3c-.35,1.05-.81,2.27-1.19,3.27h1l.17-.05Zm-2-4.18c-.16-.63-.49-1.63-.74-2.38l1-.28c.26.76.58,1.71.76,2.34Zm4.09,8.34h-1V6.76h4.14c-.87-.42-1.9-.88-2.77-1.2l.69-.6c.62.21,1.33.5,2,.79a12,12,0,0,0,2-1.15h-6V3.74h7.08l.21-.05.66.5a12,12,0,0,1-2.93,2c.42.22.81.41,1.11.58h1.83v6.38c0,.53-.12.78-.49.94a5.88,5.88,0,0,1-2,.17,3.31,3.31,0,0,0-.29-.89c.68,0,1.29,0,1.46,0s.25-.06.25-.25V11.8h-2.52v2.37h-1V11.8H206.7Zm0-6.63V8.86h2.42V7.59ZM209.12,11V9.66H206.7V11Zm3.49-3.39h-2.52V8.86h2.52Zm0,3.39V9.66h-2.52V11Z"/>
    </g>
    <g>
      <path class="cls-7" d="M275.53,10.06a12.58,12.58,0,0,1-1.68,4.57,6.5,6.5,0,0,0-.52-1.06,11.47,11.47,0,0,0,1.49-3.74ZM276.66,9v7.39h-1V9h-2.11V8h2.11V3.16h1V8h1.79V9Zm-2.23-1.64a28.73,28.73,0,0,0-.78-3.06l.8-.18a25.71,25.71,0,0,1,.81,3Zm3,2.5c.26.37,1.25,2.17,1.45,2.61l-.74.79c-.24-.71-1-2.43-1.3-3Zm1.39-5.42c-.37,1-.84,2.26-1.21,3l-.7-.25a24.11,24.11,0,0,0,1-3.08Zm7.11,10.82c0,.53-.1.79-.5.95a5.44,5.44,0,0,1-1.87.16,3.29,3.29,0,0,0-.3-.9,13.5,13.5,0,0,0,1.42,0c.19,0,.23-.06.23-.22V14h-4.49a5.26,5.26,0,0,1-1.05,2.54,3.15,3.15,0,0,0-.75-.71,5.9,5.9,0,0,0,1-3.7V9.48h6.35Zm.84-7.45v.83h-8V7.8h3.42v-1h-2.9V6h2.9V5.15h-3.26V4.32h3.26V3.15h1.06V4.32h3.42v.83H283.2V6h3.16v.78H283.2v1Zm-1.86,5.45V12.18h-4.35c0,.33,0,.7,0,1.07Zm-4.35-2.91v1.07h4.35V10.34Z"/>
      <path class="cls-7" d="M294.65,11l-2.5.18v.94c0,.49-.09.69-.48.82a6.57,6.57,0,0,1-1.86.13,3.39,3.39,0,0,0-.3-.78c.69,0,1.24,0,1.42,0s.23-.06.23-.21v-.85l-2.87.17-.09-.81,3-.14V9.7a9.6,9.6,0,0,0,1.26-.48H288.7V8.5h4.92l.19,0,.57.46a9.33,9.33,0,0,1-2.23,1.13v.38l2.52-.16Zm.18-6h-6.61V4.24h3a7.52,7.52,0,0,0-.44-.9l.93-.25a5.62,5.62,0,0,1,.62,1.15h2.47Zm-6.48,10.89a7.22,7.22,0,0,0,1.59-2.45l1,.23a7.73,7.73,0,0,1-1.6,2.62Zm.75-8V5.61h5.08V7.9Zm.92-.65h3.21v-1H290Zm3.34,6.47a12.77,12.77,0,0,1,.35,2.39l-1.06.14a15.62,15.62,0,0,0-.27-2.45Zm6.51-8.4c0,4.4,0,6.8.6,6.8.2,0,.26-.84.27-1.91a4.68,4.68,0,0,0,.67.61c-.1,1.69-.29,2.26-1,2.26-1.44,0-1.49-2.31-1.51-6.83h-1.4v.1a12.12,12.12,0,0,1-.25,2.6,9.07,9.07,0,0,1,1.43,1.35l-.58.84A8.21,8.21,0,0,0,296.93,10a7.17,7.17,0,0,1-2.57,3.27,3.73,3.73,0,0,0-.71-.66,6.45,6.45,0,0,0,2.47-3.29c-.48-.38-1-.73-1.45-1l.52-.72c.38.25.77.51,1.16.8a10.92,10.92,0,0,0,.14-2v-.1H295V5.32h1.52V3.14h1V5.32Zm-3.52,8.28A11.5,11.5,0,0,1,297.2,16l-1,.23a12.63,12.63,0,0,0-.8-2.45Zm3-.17A14,14,0,0,1,300.9,16l-1,.34a15.66,15.66,0,0,0-1.52-2.61Z"/>
    </g>
  </g>
</svg>
