<svg id="圖層_1" data-name="圖層 1" xmlns="http://www.w3.org/2000/svg" xmlns:xlink="http://www.w3.org/1999/xlink" viewBox="0 0 308.67 83">
  <defs>
    <style>
      .cls-1, .cls-4 {
        fill: none;
      }

      .cls-2 {
        clip-path: url(#clip-path);
      }

      .cls-3 {
        fill: #9e9e9f;
      }

      .cls-4 {
        stroke: #231815;
        stroke-miterlimit: 10;
        stroke-width: 2.17px;
      }

      .cls-5 {
        fill: #231815;
      }
    </style>
    <clipPath id="clip-path">
      <rect class="cls-1" x="-381.83" y="-135.5" width="275" height="380"/>
    </clipPath>
  </defs>
  <title>tele</title>
  <g class="cls-2">
    <image width="6000" height="4000" transform="translate(-542.33 -161) scale(0.1)" xlink:href="../../../Downloads/DSC_7755.jpg"/>
  </g>
  <path class="cls-3" d="M23.51,31.9c.06-.29.11-.59.18-.89a4.71,4.71,0,0,1,1.24-2.19c1.07-1.07,2.13-2.14,3.22-3.2a2.8,2.8,0,0,1,4.21,0c1.69,1.64,3.34,3.31,5,5a2.78,2.78,0,0,1,0,4.18c-1,1-2,2-2.93,2.93-.47.48-.49.57-.21,1.19a20.27,20.27,0,0,0,3.35,5,30.06,30.06,0,0,0,6.59,5.84c.72.45,1.5.8,2.24,1.2.34.18.58,0,.81-.21l2.93-2.93a3.3,3.3,0,0,1,1.69-1,2.65,2.65,0,0,1,2.46.73c1.78,1.73,3.55,3.47,5.26,5.26a2.72,2.72,0,0,1,0,4c-1.11,1.19-2.26,2.36-3.44,3.47a5.53,5.53,0,0,1-4.49,1.28,19.92,19.92,0,0,1-7.15-2.17A41,41,0,0,1,26.68,42.46a26.24,26.24,0,0,1-2.89-7.21c-.12-.52-.19-1.06-.28-1.6Z"/>
  <path class="cls-4" d="M20,31.08c.07-.3.12-.6.19-.89A4.66,4.66,0,0,1,21.46,28c1.07-1.07,2.13-2.15,3.22-3.2a2.8,2.8,0,0,1,4.21,0c1.69,1.64,3.34,3.3,5,5a2.78,2.78,0,0,1,0,4.18c-1,1-2,2-2.93,2.93-.47.47-.49.57-.22,1.18a20.45,20.45,0,0,0,3.36,5,29.76,29.76,0,0,0,6.59,5.83c.72.46,1.49.81,2.24,1.21.34.18.58,0,.81-.21L46.66,47a3.32,3.32,0,0,1,1.69-1,2.65,2.65,0,0,1,2.46.74c1.78,1.73,3.55,3.47,5.26,5.26a2.71,2.71,0,0,1,0,3.94q-1.66,1.8-3.45,3.48a5.53,5.53,0,0,1-4.48,1.28A19.86,19.86,0,0,1,41,58.5,41,41,0,0,1,23.21,41.64a25.93,25.93,0,0,1-2.89-7.21c-.12-.53-.19-1.07-.29-1.6Z"/>
  <g>
    <path class="cls-5" d="M100,41.45c0-5.86,2-8.69,5.27-8.69s5.24,2.85,5.24,8.69-2,8.78-5.24,8.78S100,47.31,100,41.45Zm8.46,0c0-4.92-1.29-7-3.19-7s-3.22,2.07-3.22,7,1.28,7.11,3.22,7.11S108.48,46.42,108.48,41.45Z"/>
    <path class="cls-5" d="M114.14,47.2A3.82,3.82,0,0,0,117,48.49c2.18,0,4.07-1.8,4.23-7a5.17,5.17,0,0,1-3.88,2.09c-2.81,0-4.65-1.81-4.65-5.31,0-3.26,2.21-5.47,4.83-5.47,3.24,0,5.65,2.67,5.65,8,0,6.83-2.94,9.45-6.11,9.45A5.35,5.35,0,0,1,113,48.51Zm7-7.47c-.23-3.48-1.52-5.32-3.68-5.32-1.61,0-2.85,1.52-2.85,3.82s1,3.75,3,3.75A4.45,4.45,0,0,0,121.18,39.73Z"/>
    <path class="cls-5" d="M125.46,45.75a5.38,5.38,0,0,1,3.1-4.64V41a4.69,4.69,0,0,1-2.28-3.89c0-2.57,2-4.27,4.63-4.27a4.26,4.26,0,0,1,4.62,4.44,5.55,5.55,0,0,1-2.25,4.07v.11a4.93,4.93,0,0,1,2.85,4.42c0,2.46-2.12,4.36-5.29,4.36S125.46,48.35,125.46,45.75Zm8.67.07c0-2.25-2.07-3.1-4.46-4.07a4.57,4.57,0,0,0-2.3,3.82,3.23,3.23,0,0,0,3.51,3.1C132.82,48.67,134.13,47.5,134.13,45.82Zm-.39-8.44a2.81,2.81,0,0,0-2.88-3,2.59,2.59,0,0,0-2.67,2.73c0,2,1.82,2.9,3.8,3.68A4.52,4.52,0,0,0,133.74,37.38Z"/>
    <path class="cls-5" d="M139.21,48.19H143V35.61h-3V34.28a10.73,10.73,0,0,0,3.5-1.2h1.61V48.19h3.38v1.75h-9.25Z"/>
    <path class="cls-5" d="M151,42.69h5.89V44.3H151Z"/>
    <path class="cls-5" d="M158.58,48l1-1.38a5.55,5.55,0,0,0,4.14,1.87,3.65,3.65,0,0,0,3.59-4c0-2.42-1.38-3.84-3.5-3.84a4.54,4.54,0,0,0-2.8,1L159.91,41l.53-7.89h8.21v1.79h-6.37l-.41,4.88a4.75,4.75,0,0,1,2.5-.67c2.81,0,5.08,1.66,5.08,5.36a5.47,5.47,0,0,1-5.51,5.79A7.13,7.13,0,0,1,158.58,48Z"/>
    <path class="cls-5" d="M182.72,45.29h-2.23v4.65h-2V45.29h-7.33V43.91l7-10.83h2.32V43.61h2.23Zm-4.23-1.68V38.44c0-.83.1-2.19.14-3.06h-.09c-.41.83-.87,1.66-1.36,2.48l-3.84,5.75Z"/>
    <path class="cls-5" d="M184.11,48l1-1.38a5.55,5.55,0,0,0,4.14,1.87,3.65,3.65,0,0,0,3.59-4c0-2.42-1.38-3.84-3.5-3.84a4.54,4.54,0,0,0-2.8,1L185.44,41l.53-7.89h8.21v1.79h-6.37l-.41,4.88a4.75,4.75,0,0,1,2.5-.67c2.81,0,5.08,1.66,5.08,5.36a5.47,5.47,0,0,1-5.52,5.79A7.12,7.12,0,0,1,184.11,48Z"/>
    <path class="cls-5" d="M197.29,42.69h5.88V44.3h-5.88Z"/>
    <path class="cls-5" d="M216.24,45.29H214v4.65h-2V45.29h-7.33V43.91l7-10.83H214V43.61h2.24ZM212,43.61V38.44c0-.83.1-2.19.14-3.06h-.09c-.41.83-.87,1.66-1.36,2.48l-3.84,5.75Z"/>
    <path class="cls-5" d="M227.28,35.79a3.58,3.58,0,0,0-2.72-1.28c-2.3,0-4.25,1.77-4.34,7a5.21,5.21,0,0,1,3.84-2.05c2.85,0,4.66,1.77,4.66,5.29,0,3.27-2.2,5.47-4.82,5.47-3.25,0-5.64-2.78-5.64-8.34,0-6.6,3-9.13,6.23-9.13a5.16,5.16,0,0,1,3.93,1.72Zm-.53,9c0-2.27-1-3.72-3-3.72a4.37,4.37,0,0,0-3.45,2.16c.25,3.49,1.52,5.4,3.64,5.4C225.5,48.6,226.75,47.06,226.75,44.76Z"/>
    <path class="cls-5" d="M240,35.79a3.58,3.58,0,0,0-2.71-1.28c-2.3,0-4.26,1.77-4.35,7a5.24,5.24,0,0,1,3.84-2.05c2.85,0,4.67,1.77,4.67,5.29,0,3.27-2.21,5.47-4.83,5.47-3.24,0-5.63-2.78-5.63-8.34,0-6.6,3-9.13,6.23-9.13a5.18,5.18,0,0,1,3.93,1.72Zm-.53,9c0-2.27-1-3.72-3-3.72A4.37,4.37,0,0,0,233,43.2c.25,3.49,1.51,5.4,3.63,5.4C238.27,48.6,239.51,47.06,239.51,44.76Z"/>
  </g>
</svg>
